<svg width="51" height="24" viewBox="0 0 51 24" fill="none" xmlns="http://www.w3.org/2000/svg">
<path d="M34.7111 22.092C35.0174 21.0358 34.8986 20.0691 34.3882 19.3504C33.9195 18.692 33.1278 18.3108 32.1757 18.267L14.1341 18.0316C14.0793 18.0326 14.0252 18.0198 13.9768 17.9943C13.9284 17.9688 13.8871 17.9315 13.857 17.8858C13.8277 17.8375 13.8089 17.7837 13.8017 17.7277C13.7945 17.6717 13.7992 17.6149 13.8153 17.5608C13.8479 17.4722 13.905 17.3947 13.9798 17.3372C14.0546 17.2797 14.1442 17.2445 14.2382 17.2358L32.4382 17.0004C34.5945 16.8983 36.9382 15.1545 37.759 13.015L38.7986 10.3025C38.8455 10.1919 38.8557 10.0692 38.8278 9.95246C38.2615 7.43162 36.887 5.16488 34.9136 3.49731C32.9401 1.82974 30.4758 0.852704 27.8959 0.714941C25.3159 0.577179 22.7616 1.28624 20.6217 2.73417C18.4819 4.1821 16.8739 6.28959 16.0424 8.73579C14.9688 7.93755 13.6364 7.56769 12.3049 7.69829C11.5416 7.77581 10.8039 8.01705 10.1423 8.40555C9.48073 8.79406 8.91069 9.32068 8.4711 9.94951C8.03151 10.5783 7.73272 11.2946 7.5951 12.0494C7.45747 12.8042 7.48426 13.5798 7.67363 14.3233C5.70279 14.3792 3.83149 15.2017 2.45771 16.6159C1.08393 18.0302 0.31605 19.9246 0.317385 21.8962C0.317385 22.2608 0.346551 22.6295 0.390301 22.9941C0.40315 23.0792 0.445829 23.1569 0.510711 23.2134C0.575593 23.2699 0.658449 23.3014 0.744468 23.3025H34.0361C34.1318 23.2998 34.2243 23.2672 34.3005 23.2092C34.3767 23.1513 34.4329 23.071 34.4611 22.9795L34.7111 22.092ZM40.4549 10.5004C40.2945 10.5004 40.1195 10.5004 39.957 10.5233C39.8403 10.5233 39.7382 10.6108 39.6924 10.7275L38.9903 13.1733C38.682 14.2295 38.7986 15.1962 39.3111 15.917C39.7799 16.5754 40.5715 16.9545 41.5236 17.0004L45.3653 17.2358C45.482 17.2358 45.584 17.29 45.6424 17.3816C45.6709 17.4302 45.6895 17.4839 45.697 17.5397C45.7046 17.5955 45.7008 17.6523 45.6861 17.7066C45.6534 17.7955 45.596 17.8732 45.5208 17.9307C45.4455 17.9883 45.3555 18.0233 45.2611 18.0316L41.2611 18.265C39.0903 18.367 36.7632 20.1129 35.9424 22.2525L35.6486 22.9983C35.5903 23.1483 35.6924 23.2941 35.8549 23.2941H49.5986C49.6783 23.2954 49.7562 23.2703 49.8202 23.2229C49.8842 23.1754 49.9308 23.1082 49.9528 23.0316C50.1922 22.1629 50.3148 21.2661 50.3174 20.365C50.3102 17.7528 49.2684 15.2499 47.4199 13.4042C45.5715 11.5585 43.067 10.5203 40.4549 10.517" fill="currentColor"/>
</svg>
