<svg width="51" height="50" viewBox="0 0 51 50" fill="none" xmlns="http://www.w3.org/2000/svg">
<g id="iconamoon:mode-dark-fill">
<path id="Vector" fill-rule="evenodd" clip-rule="evenodd" d="M24.6908 7.33204C24.8464 6.99034 24.9067 6.61294 24.8655 6.23974C24.8243 5.86655 24.6829 5.51144 24.4565 5.21197C24.23 4.91249 23.9268 4.67979 23.5789 4.53847C23.2311 4.39714 22.8515 4.35245 22.4803 4.40912C12.4824 5.94245 4.82617 14.5758 4.82617 25.0008C4.82617 36.507 14.1533 45.8341 25.6595 45.8341C37.1658 45.8341 46.4928 36.507 46.4928 25.0008L46.4845 24.4175C46.4741 24.0418 46.3623 23.676 46.161 23.3588C45.9596 23.0415 45.6762 22.7846 45.3408 22.6153C45.0053 22.446 44.6303 22.3705 44.2555 22.3969C43.8807 22.4234 43.52 22.5507 43.2116 22.7654C40.9639 24.3307 38.2642 25.1145 35.5277 24.9961C32.7912 24.8777 30.1693 23.8638 28.0652 22.1102C25.9611 20.3566 24.4912 17.9604 23.8815 15.29C23.2718 12.6197 23.5562 9.82299 24.6908 7.32995" fill="#070C1D"/>
</g>
</svg>
