<svg width="51" height="50" viewBox="0 0 51 50" fill="none" xmlns="http://www.w3.org/2000/svg">
<path d="M38.8555 0.000267029H12.293C5.82088 0.000267029 0.574219 5.24693 0.574219 11.719V38.2815C0.574219 44.7536 5.82088 50.0003 12.293 50.0003H38.8555C45.3276 50.0003 50.5742 44.7536 50.5742 38.2815V11.719C50.5742 5.24693 45.3276 0.000267029 38.8555 0.000267029Z" fill="currentColor"/>
<path d="M44.6367 35.7302C44.0681 35.9456 43.4404 35.9451 42.8721 35.729C42.3038 35.5129 41.8344 35.0961 41.5525 34.5574C39.7824 31.9076 37.8277 29.3773 35.949 26.7927L35.1344 25.7068C32.8973 28.7041 30.6602 31.5818 28.6186 34.5683C28.3526 35.0832 27.9086 35.4839 27.3692 35.6957C26.8298 35.9075 26.2317 35.9159 25.6865 35.7195L34.0811 24.458L26.2729 14.2822C26.8349 14.0792 27.4498 14.0764 28.0137 14.2743C28.5776 14.4721 29.0559 14.8585 29.368 15.3681C31.1814 18.0181 33.1906 20.5484 35.1887 23.2308C37.1979 20.5701 39.1852 18.0289 41.0422 15.4007C41.3096 14.8942 41.7539 14.5037 42.2905 14.3034C42.8272 14.1032 43.4187 14.1072 43.9525 14.3148L40.9227 18.333C39.5652 20.1248 38.2295 21.9275 36.8178 23.6759C36.7039 23.7778 36.6129 23.9024 36.5505 24.0419C36.4882 24.1813 36.456 24.3323 36.456 24.485C36.456 24.6377 36.4882 24.7887 36.5505 24.9282C36.6129 25.0676 36.7039 25.1923 36.8178 25.2941C39.4133 28.7367 41.9869 32.19 44.6367 35.7302ZM5.57422 24.3168C5.80234 23.2308 5.94336 22.047 6.2584 20.9394C8.13711 14.2607 15.7932 11.4804 21.0602 15.6181C24.1443 18.04 24.9154 21.4716 24.7635 25.3377H7.38789C7.10547 32.2445 12.09 36.4146 18.4646 34.2861C19.4987 33.9162 20.4244 33.2946 21.1581 32.4774C21.8918 31.6602 22.4105 30.6732 22.6674 29.6054C23.0041 28.5195 23.5471 28.3349 24.5787 28.6498C24.4088 29.9718 23.9414 31.2382 23.2116 32.3536C22.4818 33.469 21.5086 34.4045 20.3652 35.0896C18.4761 36.1228 16.3086 36.5321 14.1728 36.259C12.037 35.986 10.0423 35.0445 8.47383 33.5693C6.92213 31.8246 5.9839 29.6201 5.80234 27.2923C5.80234 26.9232 5.66113 26.5539 5.58516 26.2064C5.57797 25.5765 5.57432 24.9467 5.57422 24.3168ZM7.40957 23.8498H23.1236C23.0258 18.8435 19.8656 15.2923 15.6521 15.2599C10.9607 15.1947 7.60508 18.6697 7.39863 23.8281L7.40957 23.8498Z" fill="transparent"/>
</svg>
