<svg width="36" height="50" viewBox="0 0 36 50" fill="none" xmlns="http://www.w3.org/2000/svg">
<path d="M31.1174 17.2697C32.7486 16.0867 33.9635 14.4178 34.5881 12.502C35.2126 10.5863 35.2148 8.52198 34.5943 6.6049C33.9737 4.68782 32.7623 3.01634 31.1336 1.82992C29.505 0.643501 27.5425 0.00303054 25.5275 0.000267029H10.0759C8.0609 0.00303054 6.09848 0.643501 4.46978 1.82992C2.84108 3.01634 1.62969 4.68782 1.00916 6.6049C0.388634 8.52198 0.390811 10.5863 1.01538 12.502C1.63995 14.4178 2.85486 16.0867 4.48606 17.2697C3.26142 18.1517 2.26398 19.3122 1.57603 20.6555C0.888069 21.9988 0.529297 23.4863 0.529297 24.9955C0.529297 26.5047 0.888069 27.9923 1.57603 29.3356C2.26398 30.6789 3.26142 31.8393 4.48606 32.7213C3.16139 33.6786 2.10475 34.96 1.41738 36.4428C0.730011 37.9255 0.434944 39.56 0.560454 41.1895C0.685963 42.819 1.22784 44.389 2.13417 45.7491C3.0405 47.1091 4.28091 48.2136 5.73655 48.9567C7.19218 49.6998 8.81426 50.0566 10.4474 49.993C12.0805 49.9294 13.6699 49.4475 15.0633 48.5934C16.4567 47.7393 17.6075 46.5417 18.4053 45.1153C19.2031 43.6889 19.6212 42.0815 19.6196 40.4471V32.4714C20.6102 33.3072 21.7606 33.9325 23.0008 34.3091C24.241 34.6857 25.5449 34.8058 26.833 34.662C28.1211 34.5182 29.3664 34.1135 30.493 33.4726C31.6196 32.8317 32.6038 31.9681 33.3857 30.9344C34.1675 29.9006 34.7306 28.7185 35.0406 27.46C35.3506 26.2015 35.4011 24.8931 35.1888 23.6145C34.9766 22.3359 34.5061 21.1139 33.8061 20.023C33.1061 18.9322 32.1913 17.9954 31.1174 17.2697ZM31.4355 9.54391C31.4295 11.109 30.8051 12.6082 29.6985 13.7149C28.5918 14.8215 27.0926 15.4459 25.5275 15.4519H19.6196V3.63594H25.5275C27.0926 3.64193 28.5918 4.26629 29.6985 5.37296C30.8051 6.47962 31.4295 7.97886 31.4355 9.54391ZM4.16794 9.54391C4.17392 7.97886 4.79829 6.47962 5.90496 5.37296C7.01162 4.26629 8.51086 3.64193 10.0759 3.63594H15.9839V15.4519H10.0759C8.51086 15.4459 7.01162 14.8215 5.90496 13.7149C4.79829 12.6082 4.17392 11.109 4.16794 9.54391ZM4.16794 24.9955C4.17392 23.4305 4.79829 21.9312 5.90496 20.8246C7.01162 19.7179 8.51086 19.0935 10.0759 19.0876H15.9839V30.9035H10.0759C8.51086 30.8975 7.01162 30.2731 5.90496 29.1665C4.79829 28.0598 4.17392 26.5606 4.16794 24.9955ZM10.0759 46.3551C8.50902 46.3551 7.0063 45.7327 5.89834 44.6247C4.79039 43.5167 4.16794 42.014 4.16794 40.4471C4.16794 38.8802 4.79039 37.3775 5.89834 36.2696C7.0063 35.1616 8.50902 34.5392 10.0759 34.5392H15.9839V40.4471C15.9779 42.0122 15.3535 43.5114 14.2469 44.6181C13.1402 45.7248 11.641 46.3491 10.0759 46.3551ZM25.5275 30.9035C23.9606 30.9035 22.4579 30.2811 21.35 29.1731C20.242 28.0651 19.6196 26.5624 19.6196 24.9955C19.6196 23.4286 20.242 21.9259 21.35 20.818C22.4579 19.71 23.9606 19.0876 25.5275 19.0876C27.0944 19.0876 28.5971 19.71 29.7051 20.818C30.813 21.9259 31.4355 23.4286 31.4355 24.9955C31.4355 26.5624 30.813 28.0651 29.7051 29.1731C28.5971 30.2811 27.0944 30.9035 25.5275 30.9035Z" fill="currentColor"/>
</svg>
