<svg width="51" height="50" viewBox="0 0 51 50" fill="none" xmlns="http://www.w3.org/2000/svg">
<g id="ic:round-light-mode">
<path id="Vector" d="M25.6589 14.5836C19.9089 14.5836 15.2422 19.2503 15.2422 25.0003C15.2422 30.7503 19.9089 35.4169 25.6589 35.4169C31.4089 35.4169 36.0755 30.7503 36.0755 25.0003C36.0755 19.2503 31.4089 14.5836 25.6589 14.5836ZM4.82552 27.0836H8.99219C10.138 27.0836 11.0755 26.1461 11.0755 25.0003C11.0755 23.8544 10.138 22.9169 8.99219 22.9169H4.82552C3.67969 22.9169 2.74219 23.8544 2.74219 25.0003C2.74219 26.1461 3.67969 27.0836 4.82552 27.0836ZM42.3255 27.0836H46.4922C47.638 27.0836 48.5755 26.1461 48.5755 25.0003C48.5755 23.8544 47.638 22.9169 46.4922 22.9169H42.3255C41.1797 22.9169 40.2422 23.8544 40.2422 25.0003C40.2422 26.1461 41.1797 27.0836 42.3255 27.0836ZM23.5755 4.16694V8.3336C23.5755 9.47944 24.513 10.4169 25.6589 10.4169C26.8047 10.4169 27.7422 9.47944 27.7422 8.3336V4.16694C27.7422 3.0211 26.8047 2.0836 25.6589 2.0836C24.513 2.0836 23.5755 3.0211 23.5755 4.16694ZM23.5755 41.6669V45.8336C23.5755 46.9794 24.513 47.9169 25.6589 47.9169C26.8047 47.9169 27.7422 46.9794 27.7422 45.8336V41.6669C27.7422 40.5211 26.8047 39.5836 25.6589 39.5836C24.513 39.5836 23.5755 40.5211 23.5755 41.6669ZM13.138 9.54194C12.9453 9.3488 12.7163 9.19558 12.4643 9.09103C12.2123 8.98649 11.9421 8.93268 11.6693 8.93268C11.3964 8.93268 11.1262 8.98649 10.8742 9.09103C10.6222 9.19558 10.3933 9.3488 10.2005 9.54194C10.0074 9.73467 9.85416 9.96361 9.74962 10.2156C9.64507 10.4677 9.59126 10.7378 9.59126 11.0107C9.59126 11.2835 9.64507 11.5537 9.74962 11.8057C9.85416 12.0578 10.0074 12.2867 10.2005 12.4794L12.4089 14.6878C13.2214 15.5003 14.5547 15.5003 15.3464 14.6878C16.138 13.8753 16.1589 12.5419 15.3464 11.7503L13.138 9.54194ZM38.9089 35.3128C38.7161 35.1196 38.4872 34.9664 38.2352 34.8619C37.9831 34.7573 37.713 34.7035 37.4401 34.7035C37.1673 34.7035 36.8971 34.7573 36.6451 34.8619C36.393 34.9664 36.1641 35.1196 35.9714 35.3128C35.7782 35.5055 35.625 35.7344 35.5205 35.9865C35.4159 36.2385 35.3621 36.5087 35.3621 36.7815C35.3621 37.0544 35.4159 37.3245 35.5205 37.5766C35.625 37.8286 35.7782 38.0575 35.9714 38.2503L38.1797 40.4586C38.9922 41.2711 40.3255 41.2711 41.1172 40.4586C41.3103 40.2659 41.4635 40.0369 41.5681 39.7849C41.6726 39.5329 41.7264 39.2627 41.7264 38.9899C41.7264 38.717 41.6726 38.4468 41.5681 38.1948C41.4635 37.9428 41.3103 37.7138 41.1172 37.5211L38.9089 35.3128ZM41.1172 12.4794C41.3103 12.2867 41.4635 12.0578 41.5681 11.8057C41.6726 11.5537 41.7264 11.2835 41.7264 11.0107C41.7264 10.7378 41.6726 10.4677 41.5681 10.2156C41.4635 9.96361 41.3103 9.73467 41.1172 9.54194C40.9244 9.3488 40.6955 9.19558 40.4435 9.09103C40.1915 8.98649 39.9213 8.93268 39.6484 8.93268C39.3756 8.93268 39.1054 8.98649 38.8534 9.09103C38.6014 9.19558 38.3724 9.3488 38.1797 9.54194L35.9714 11.7503C35.1589 12.5628 35.1589 13.8961 35.9714 14.6878C36.7839 15.4794 38.1172 15.5003 38.9089 14.6878L41.1172 12.4794ZM15.3464 38.2503C15.5395 38.0575 15.6927 37.8286 15.7973 37.5766C15.9018 37.3245 15.9556 37.0544 15.9556 36.7815C15.9556 36.5087 15.9018 36.2385 15.7973 35.9865C15.6927 35.7344 15.5395 35.5055 15.3464 35.3128C15.1536 35.1196 14.9247 34.9664 14.6727 34.8619C14.4206 34.7573 14.1505 34.7035 13.8776 34.7035C13.6048 34.7035 13.3346 34.7573 13.0826 34.8619C12.8305 34.9664 12.6016 35.1196 12.4089 35.3128L10.2005 37.5211C9.38802 38.3336 9.38802 39.6669 10.2005 40.4586C11.013 41.2503 12.3464 41.2711 13.138 40.4586L15.3464 38.2503Z" fill="#E2E7F8"/>
</g>
</svg>
