<svg width="57" height="50" viewBox="0 0 57 50" fill="none" xmlns="http://www.w3.org/2000/svg">
<path d="M46.2756 16.2947L44.4662 15.6916C44.4662 15.2895 44.6672 14.8874 44.6672 14.4853C46.0746 7.85081 45.0693 2.42258 42.0536 0.613175C39.038 -0.995188 34.2129 0.613175 29.3878 4.83513C28.9857 5.23722 28.3826 5.63931 27.9805 6.0414C27.5784 5.84036 27.3773 5.43826 26.9752 5.23722C22.1502 0.81422 17.124 -0.995188 14.1083 0.814221C11.0927 2.42258 10.2885 7.64976 11.4947 13.8822C11.6958 14.4853 11.6958 15.0884 11.8968 15.6916C11.0927 15.8926 10.4895 16.0937 9.88638 16.2947C3.85502 18.3052 0.0351562 21.7229 0.0351562 24.9397C0.0351562 28.3574 4.05606 31.9763 10.2885 33.9867C10.6906 34.1878 11.2937 34.3888 11.8968 34.3888C11.6958 34.9919 11.4947 35.7961 11.4947 36.3993C10.2885 42.6317 11.2937 47.4568 14.1083 49.2662C17.124 51.0756 22.1502 49.2662 27.1763 44.8432C27.5784 44.4411 27.9805 44.039 28.3826 43.8379C28.7847 44.24 29.3878 44.8432 29.9909 45.2453C34.816 49.4672 39.4401 51.0756 42.4557 49.2662C45.4714 47.4568 46.4766 42.2296 45.2704 35.7961C45.2704 35.394 45.0693 34.7909 44.8683 34.1878C45.2704 33.9867 45.6725 33.9867 45.8735 33.7857C52.307 31.5742 56.5289 28.1564 56.5289 24.7386C56.3279 21.7229 52.307 18.5062 46.2756 16.2947ZM31.1972 6.84558C35.4192 3.22677 39.239 1.81945 41.0484 2.82467C42.8578 3.8299 43.662 8.2529 42.4557 14.0832C42.4557 14.4853 42.2547 14.8874 42.2547 15.2895C39.8421 14.6864 37.2286 14.2843 34.816 14.0832C33.4087 12.0728 31.8003 10.0623 29.9909 8.05186L31.1972 6.84558ZM16.7219 27.9554C17.3251 28.9606 17.7272 29.9658 18.3303 30.971C18.9334 31.9763 19.5366 32.9815 20.1397 33.7857C18.3303 33.5846 16.7219 33.3836 14.9125 32.9815C15.3146 31.3731 15.9177 29.7648 16.7219 27.9554ZM16.7219 22.3261C15.9177 20.7177 15.5157 19.1094 14.9125 17.501C16.5209 17.0989 18.3303 16.8979 19.9387 16.6968C19.3355 17.702 18.7324 18.5062 18.1292 19.5114C17.7272 20.3156 17.124 21.3209 16.7219 22.3261ZM17.9282 25.1407C18.7324 23.5324 19.5366 22.125 20.3407 20.5167C21.1449 19.1094 22.1502 17.501 23.1554 16.0937C24.7637 15.8926 26.5732 15.8926 28.3826 15.8926C30.192 15.8926 31.8003 15.8926 33.6097 16.0937C34.615 17.501 35.4192 18.9083 36.2233 20.5167C37.0275 21.924 37.8317 23.5324 38.6359 25.1407C37.8317 26.7491 37.0275 28.1564 36.2233 29.7648C35.4192 31.1721 34.4139 32.7804 33.6097 34.1878C32.0014 34.3888 30.192 34.3888 28.3826 34.3888C26.5732 34.3888 24.9648 34.3888 23.3564 34.1878C22.3512 32.7804 21.547 31.3731 20.5418 29.7648C19.5366 28.1564 18.7324 26.7491 17.9282 25.1407ZM38.0327 30.971C38.6359 29.9658 39.239 28.9606 39.6411 27.9554C40.4453 29.5637 41.0484 31.1721 41.4505 32.9815C39.6411 33.3836 38.0327 33.5846 36.2233 33.7857C37.0275 32.7804 37.6306 31.7752 38.0327 30.971ZM39.6411 22.3261C39.038 21.3209 38.6359 20.3156 38.0327 19.3104C37.4296 18.3052 36.8265 17.501 36.4244 16.4958C38.2338 16.6968 39.8422 17.0989 41.6516 17.2999C41.0484 19.1094 40.4453 20.7177 39.6411 22.3261ZM28.1815 9.66022C29.3878 10.8665 30.393 12.2738 31.3982 13.6811C29.1867 13.4801 26.9752 13.4801 24.7637 13.6811C25.97 12.2738 27.1763 10.8665 28.1815 9.66022ZM15.3146 2.82467C17.124 1.81945 21.346 3.22677 25.769 7.24767L26.5732 8.05186C24.7637 9.86126 23.1554 11.8717 21.7481 14.0832C19.1345 14.2843 16.7219 14.6864 14.3094 15.2895C14.1083 14.6864 14.1083 14.0832 13.9073 13.4801C12.701 8.05186 13.5052 3.8299 15.3146 2.82467ZM12.5 32.3783C12.0979 32.1773 11.4947 32.1773 11.0927 31.9763C8.27802 30.971 6.06652 29.7648 4.45816 28.5585C3.05084 27.3522 2.4477 26.1459 2.4477 25.1407C2.4477 23.1303 5.46338 20.5167 10.6906 18.7073C11.2937 18.5062 11.8968 18.3052 12.701 18.1041C13.3042 20.5167 14.1083 22.9292 15.3146 25.1407C14.1083 27.5533 13.3042 29.9658 12.5 32.3783ZM25.5679 43.4358C23.3564 45.4463 21.1449 46.6526 19.3355 47.4568C17.5261 48.0599 16.3198 48.0599 15.3146 47.6578C13.5052 46.6526 12.701 42.6317 13.7062 37.4045C13.9073 36.6003 14.1083 35.9972 14.1083 35.193C16.5209 35.7961 19.1345 36.1982 21.7481 36.1982C23.1554 38.2087 24.7637 40.2191 26.5732 42.2296C26.1711 42.6317 25.97 43.0338 25.5679 43.4358ZM28.1815 40.6212C26.9752 39.4149 25.97 38.0076 24.7637 36.6003H31.3982C30.5941 38.0076 29.3878 39.4149 28.1815 40.6212ZM42.8578 44.039C42.4557 45.8484 41.8526 47.0547 41.0484 47.4568C39.239 48.462 35.4192 47.0547 31.3982 43.6369C30.9962 43.2348 30.393 42.8327 29.9909 42.4306C31.5993 40.6212 33.2077 38.6108 34.615 36.3993C37.2286 36.1982 39.6411 35.7961 42.2547 35.193C42.4557 35.5951 42.4557 36.1982 42.6568 36.6003C43.2599 39.4149 43.2599 42.0285 42.8578 44.039ZM44.8683 31.9763C44.4662 31.9763 44.2651 32.1773 43.8631 32.1773C43.0589 29.7648 42.0536 27.3522 41.0484 24.9397C42.0536 22.7282 43.0589 20.3156 43.8631 17.9031C44.4662 18.1041 45.0693 18.3052 45.4714 18.5062C50.6986 20.3156 53.9153 22.9292 53.9153 24.9397C53.9153 27.3522 50.4976 30.1669 44.8683 31.9763Z" fill="currentColor"/>
<path d="M28.1813 30.1669C29.1865 30.1669 30.1917 29.9658 30.9959 29.3627C31.8001 28.7595 32.4032 27.9553 32.8053 27.1512C33.2074 26.1459 33.2074 25.1407 33.0064 24.1355C32.8053 23.1303 32.4032 22.3261 31.5991 21.5219C30.9959 20.7177 29.9907 20.3156 28.9855 20.1146C27.9802 19.9135 26.975 20.1146 25.9698 20.3156C24.9646 20.7177 24.1604 21.3209 23.7583 22.125C23.1551 22.9292 22.9541 23.9344 22.9541 24.9397C22.9541 25.5428 23.1551 26.347 23.3562 26.9501C23.5572 27.5533 23.9593 28.1564 24.3614 28.5585C24.7635 28.9606 25.3666 29.3627 25.9698 29.5637C26.774 29.9658 27.5781 30.1669 28.1813 30.1669Z" fill="currentColor"/>
</svg>
