<svg width="59" height="50" viewBox="0 0 59 50" fill="none" xmlns="http://www.w3.org/2000/svg">
<path d="M58.6393 30.6899C58.6211 31.2496 57.8791 31.8676 56.3696 32.6552C53.2558 34.2795 37.1325 40.9155 33.6942 42.7003C30.2577 44.4942 28.3581 44.476 25.6417 43.1743C22.9253 41.8836 5.76837 34.9413 2.67279 33.4701C1.13412 32.7299 0.346552 32.1119 0.317383 31.523V37.4188C0.317383 38.0077 1.13412 38.6239 2.67279 39.3659C5.76837 40.848 22.9362 47.7794 25.6417 49.0701C28.3581 50.3718 30.2559 50.39 33.6942 48.5961C37.1307 46.8113 53.2539 40.1735 56.3696 38.551C57.9557 37.7342 58.6575 37.0889 58.6575 36.5091V30.6972C58.6575 30.6881 58.6484 30.6881 58.6393 30.6881V30.6899ZM58.6393 21.0805C58.6101 21.631 57.8791 22.2491 56.3696 23.0457C53.2558 24.6592 37.1325 31.297 33.6942 33.0818C30.2577 34.8757 28.3581 34.8574 25.6417 33.5667C22.9253 32.265 5.76837 25.3337 2.67279 23.8534C1.13412 23.1223 0.346552 22.4952 0.317383 21.9063V27.8021C0.317383 28.391 1.13412 29.0181 2.67279 29.7492C5.76837 31.2313 22.9253 38.1627 25.6417 39.4625C28.3581 40.7532 30.2559 40.7733 33.6942 38.9885C37.1307 37.1946 53.2539 30.5659 56.3696 28.9434C57.9557 28.1175 58.6575 27.4722 58.6575 26.8924V21.0805H58.6393ZM58.6393 11.101C58.6685 10.5121 57.8991 9.99072 56.3313 9.4201C53.3032 8.30985 37.2656 1.9291 34.1974 0.798791C31.131 -0.322398 29.8767 -0.274998 26.2688 1.01756C22.661 2.31923 5.597 9.01173 2.55976 10.1986C1.04114 10.7965 0.299152 11.3471 0.328321 11.9359V17.8318C0.328321 18.4206 1.13594 19.0368 2.68373 19.7788C5.77019 21.261 22.9362 28.1923 25.6526 29.4921C28.3581 30.7829 30.2668 30.8029 33.7051 29.0072C37.1325 27.2224 53.2649 20.5846 56.3805 18.9712C57.9575 18.1453 58.6594 17.5 58.6594 16.9202V11.0992L58.6393 11.101ZM21.208 16.685L34.7297 14.6159L30.646 20.5974L21.208 16.685ZM51.1082 11.2906L42.2499 14.7945L34.2557 11.6333L43.1049 8.13848L51.1082 11.2906ZM27.6361 5.49867L26.3253 3.08675L30.409 4.68194L34.2539 3.42766L33.2093 5.91616L37.1307 7.38738L32.079 7.90877L30.9395 10.6343L29.1165 7.59521L23.2772 7.07381L27.6361 5.49867ZM17.5618 8.90782C21.5598 8.90782 24.7885 10.1621 24.7885 11.6989C24.7885 13.2467 21.5507 14.4992 17.5618 14.4992C13.5729 14.4992 10.3352 13.2449 10.3352 11.6989C10.3352 10.1603 13.5729 8.90782 17.5618 8.90782Z" fill="currentColor"/>
</svg>
