<svg width="51" height="34" viewBox="0 0 51 34" fill="none" xmlns="http://www.w3.org/2000/svg">
<path d="M25.6592 0.33403C22.2393 0.33403 19.2993 1.25734 16.9927 3.23396C14.6995 5.20057 13.2028 8.05717 12.3695 11.6204C12.2811 11.9978 12.3269 12.3942 12.4992 12.7414C12.6715 13.0887 12.9594 13.365 13.3134 13.5228C13.6674 13.6807 14.0654 13.7102 14.4388 13.6064C14.8122 13.5025 15.1378 13.2717 15.3594 12.9537C16.4127 11.4471 17.4661 10.5438 18.4794 10.0771C19.4593 9.62712 20.516 9.53713 21.7293 9.86045C22.9492 10.1871 23.8959 11.1471 25.3792 12.7604L25.4292 12.8137C26.5492 14.0303 27.9125 15.5136 29.7791 16.6669C31.719 17.8636 34.129 18.6669 37.3255 18.6669C40.7455 18.6669 43.6854 17.7436 45.992 15.767C48.2853 13.8004 49.7852 10.9438 50.6152 7.38052C50.7037 7.00313 50.6578 6.60671 50.4855 6.25949C50.3132 5.91226 50.0253 5.63594 49.6713 5.47808C49.3173 5.32022 48.9193 5.29068 48.5459 5.39456C48.1725 5.49843 47.8469 5.72923 47.6253 6.04722C46.572 7.55385 45.5187 8.45716 44.5054 8.92381C43.5254 9.3738 42.4688 9.4638 41.2554 9.14047C40.0355 8.81381 39.0888 7.85384 37.6055 6.24054L37.5555 6.18721C36.4356 4.97058 35.0723 3.48728 33.2057 2.33398C31.2657 1.13734 28.8558 0.33403 25.6592 0.33403ZM13.9928 15.3336C10.5729 15.3336 7.63297 16.257 5.32637 18.2336C3.03309 20.2002 1.53646 23.0568 0.703151 26.62C0.614703 26.9974 0.660563 27.3938 0.832837 27.741C1.00511 28.0883 1.29303 28.3646 1.64704 28.5225C2.00105 28.6803 2.39901 28.7099 2.77245 28.606C3.14588 28.5021 3.47143 28.2713 3.69307 27.9533C4.74638 26.4467 5.79969 25.5434 6.81299 25.0767C7.79297 24.6267 8.84961 24.5367 10.0629 24.8601C11.2829 25.1867 12.2295 26.1467 13.7128 27.76L13.7628 27.8133C14.8828 29.03 16.2461 30.5133 18.1127 31.6666C20.0527 32.8632 22.4626 33.6665 25.6592 33.6665C29.0791 33.6665 32.019 32.7432 34.3256 30.7666C36.6189 28.8 38.1189 25.9434 38.9488 22.3801C39.0373 22.0027 38.9914 21.6063 38.8192 21.2591C38.6469 20.9119 38.359 20.6356 38.005 20.4777C37.6509 20.3198 37.253 20.2903 36.8795 20.3942C36.5061 20.498 36.1806 20.7288 35.9589 21.0468C34.9056 22.5535 33.8523 23.4568 32.839 23.9234C31.859 24.3734 30.8024 24.4634 29.5891 24.1401C28.3691 23.8134 27.4225 22.8535 25.9392 21.2402L25.8892 21.1868C24.7725 19.9702 23.4059 18.4869 21.5393 17.3336C19.5993 16.1336 17.1894 15.3336 13.9928 15.3336Z" fill="currentColor"/>
</svg>
