<svg width="51" height="50" viewBox="0 0 51 50" fill="none" xmlns="http://www.w3.org/2000/svg">
<g clip-path="url(#clip0_1075_497)">
<path d="M48.8935 5.69171L35.3474 8.16075L37.7014 0.000793457L18.9033 3.68419L18.6104 8.6295L2.1411 5.68575C1.00682 5.61974 0.345886 6.43429 0.814245 7.56525L24.6478 49.3605C25.1608 50.1979 26.3419 50.2306 26.8598 49.3605L50.23 7.56124C50.7573 6.61632 49.9493 5.5087 48.8935 5.69171ZM25.749 48.2147L2.40721 7.28165L18.5198 10.1616L17.7602 22.9902L24.3649 21.466L22.5233 30.484L27.5403 28.9598L25.0506 41.0103C24.9266 41.7983 25.953 42.2175 26.4607 41.0896L41.1307 11.813L33.8909 13.2103L34.8759 9.79601L48.6366 7.28781L25.749 48.2147Z" fill="currentColor"/>
</g>
<defs>
<clipPath id="clip0_1075_497">
<rect width="49.81" height="50" fill="white" transform="translate(0.660156 0.000793457)"/>
</clipPath>
</defs>
</svg>
