<svg width="51" height="50" viewBox="0 0 51 50" fill="none" xmlns="http://www.w3.org/2000/svg">
<path d="M0.287109 0.000267029V50.0003H50.2871V0.000267029H0.287109ZM27.0728 38.8396C27.0728 43.7067 24.1978 46.0795 20.036 46.0795C16.2771 46.0795 14.0951 44.1331 12.988 41.7837L16.8139 39.4679C17.5516 40.7771 18.1119 41.8842 19.7224 41.8842C21.0617 41.8842 22.1621 41.2804 22.1621 38.9311V23.2146H27.0728V38.8396ZM38.161 45.9679C33.7983 45.9679 30.9791 43.9991 29.603 41.2804L33.4344 39.0628C34.4389 40.7079 35.7503 41.8038 38.0661 41.8038C40.0126 41.8038 41.1431 40.9422 41.1431 39.5996C41.1431 37.9891 39.9791 37.4188 37.8306 36.4746L36.6565 35.9701C33.2659 34.5282 31.0181 32.7157 31.0181 28.8887C31.0181 25.3652 33.7023 22.7916 37.8976 22.7916C40.8853 22.7916 43.0315 23.7201 44.5773 26.4389L40.9121 28.7949C40.1063 27.3518 39.238 26.786 37.892 26.786C36.5159 26.786 35.6431 27.6587 35.6431 28.7949C35.6431 30.2045 36.5159 30.7748 38.5293 31.6476L39.7034 32.1509C43.6978 33.863 45.9467 35.6108 45.9467 39.5349C45.9478 43.7648 42.6253 45.9679 38.161 45.9679Z" fill="#E2E7F8"/>
</svg>
