<svg width="51" height="50" viewBox="0 0 51 50" fill="none" xmlns="http://www.w3.org/2000/svg">
<g clip-path="url(#clip0_929_282)">
<path d="M25.6396 0.000656128C11.8682 0.000656128 0.65918 11.2096 0.65918 24.9811C0.65918 38.7526 11.8682 49.9616 25.6396 49.9616C39.4111 49.9616 50.6201 38.7526 50.6201 24.9811C50.6201 11.2096 39.4115 0.000656128 25.6396 0.000656128ZM25.6396 4.17214C37.1568 4.17214 46.449 13.4639 46.449 24.9811C46.449 36.4987 37.1568 45.7905 25.6396 45.7905C14.1225 45.7905 4.83027 36.4987 4.83027 24.9811C4.83027 13.4639 14.1225 4.17214 25.6396 4.17214Z" fill="#E2E7F8"/>
<path fill-rule="evenodd" clip-rule="evenodd" d="M19.5609 23.7175C25.0312 19.2487 30.382 14.6245 35.9715 10.2862C33.0398 14.7913 30.0246 19.2366 27.093 23.7413C24.5785 23.753 22.0637 23.753 19.5609 23.7175ZM24.1852 26.2081C26.7117 26.2081 29.2262 26.2081 31.7406 26.244C26.2348 30.6893 20.9078 35.3491 15.3066 39.6753C18.2383 35.1702 21.2535 30.7132 24.1852 26.2081Z" fill="#E2E7F8"/>
</g>
<defs>
<clipPath id="clip0_929_282">
<rect width="50" height="50" fill="white" transform="translate(0.65918 0.000267029)"/>
</clipPath>
</defs>
</svg>
