<svg width="54" height="50" viewBox="0 0 54 50" fill="none" xmlns="http://www.w3.org/2000/svg">
<path d="M25.9518 0.00399743C24.5998 0.0284639 23.2647 0.170623 21.9654 0.455362L20.9522 0.794096C18.9248 1.4703 17.2345 2.48355 16.2208 3.83553L15.5451 4.84962L10.4759 13.6356L10.5459 13.6487C8.52741 16.105 8.43376 19.5839 10.4759 22.7603C11.2369 23.7496 12.194 24.6295 13.2743 25.3901L6.75907 27.4917L0 39.3199C0 39.3199 17.9111 52.8372 31.7668 49.4579L32.7804 49.12C35.0254 48.4598 36.7001 47.2302 37.7087 45.7166L37.8496 45.7403L44.6083 33.5745C45.9598 31.2089 45.6224 28.5058 43.9325 25.8022C43.0706 24.7383 42.069 23.7957 40.9548 23L47.6501 20.7326L53.733 10.5946C53.733 10.5946 39.0228 -0.2297 25.9518 0.00399743Z" fill="#E2E7F8"/>
</svg>
