<svg width="51" height="50" viewBox="0 0 51 50" fill="none" xmlns="http://www.w3.org/2000/svg">
<path d="M43.1371 12.5003C45.0334 12.5003 46.852 13.2536 48.1929 14.5945C49.5338 15.9353 50.2871 17.754 50.2871 19.6503V29.1003C50.2871 30.0392 50.1022 30.969 49.7428 31.8365C49.3835 32.7039 48.8569 33.4921 48.1929 34.1561C47.529 34.82 46.7408 35.3467 45.8733 35.706C45.0058 36.0653 44.0761 36.2503 43.1371 36.2503H25.2871C25.2871 37.2253 26.0871 38.6503 27.0621 38.6503H37.7871V42.8503C37.7871 44.7466 37.0338 46.5652 35.6929 47.9061C34.352 49.247 32.5334 50.0003 30.6371 50.0003H19.9371C18.0408 50.0003 16.2222 49.247 14.8813 47.9061C13.5404 46.5652 12.7871 44.7466 12.7871 42.8503V33.4753C12.7871 32.5375 12.9722 31.6089 13.3318 30.7429C13.6915 29.8768 14.2185 29.0902 14.8828 28.4283C15.5471 27.7663 16.3355 27.242 17.2028 26.8854C18.0701 26.5288 18.9993 26.347 19.9371 26.3503H33.0621C33.9999 26.3503 34.9284 26.1652 35.7945 25.8055C36.6606 25.4459 37.4472 24.9188 38.1091 24.2546C38.771 23.5903 39.2954 22.8019 39.6519 21.9346C40.0085 21.0672 40.1904 20.138 40.1871 19.2003V12.5003H43.1371ZM32.4371 41.9753C31.4371 41.9753 30.6371 42.7253 30.6371 44.2003C30.6371 45.6753 31.4371 45.9753 32.4371 45.9753C32.6702 45.9753 32.901 45.9294 33.1164 45.8402C33.3317 45.7509 33.5274 45.6202 33.6922 45.4554C33.857 45.2906 33.9878 45.0949 34.077 44.8795C34.1662 44.6642 34.2121 44.4334 34.2121 44.2003C34.2121 42.7253 33.4121 41.9753 32.4371 41.9753ZM7.43711 37.5003C5.54081 37.5003 3.72218 36.747 2.3813 35.4061C1.04041 34.0652 0.287109 32.2466 0.287109 30.3503V20.9003C0.287109 19.9613 0.47205 19.0316 0.831371 18.1641C1.19069 17.2966 1.71736 16.5084 2.3813 15.8445C3.72218 14.5036 5.54081 13.7503 7.43711 13.7503H25.2871C25.2871 12.7753 24.4871 11.3503 23.5121 11.3503H12.7871V7.15027C12.7871 5.25397 13.5404 3.43534 14.8813 2.09445C16.2222 0.753568 18.0408 0.000267029 19.9371 0.000267029H30.6371C31.5761 0.000267029 32.5058 0.185207 33.3733 0.544528C34.2408 0.903849 35.029 1.43051 35.6929 2.09445C36.3569 2.75839 36.8835 3.5466 37.2428 4.41408C37.6022 5.28156 37.7871 6.21132 37.7871 7.15027V16.5253C37.7871 17.463 37.602 18.3916 37.2424 19.2577C36.8827 20.1238 36.3557 20.9103 35.6914 21.5723C35.0271 22.2342 34.2387 22.7585 33.3714 23.1151C32.5041 23.4717 31.5749 23.6536 30.6371 23.6503H17.5121C16.5743 23.6503 15.6458 23.8354 14.7797 24.195C13.9136 24.5546 13.1271 25.0817 12.4651 25.746C11.8032 26.4102 11.2789 27.1986 10.9223 28.066C10.5657 28.9333 10.3838 29.8625 10.3871 30.8003V37.5003H7.43711ZM18.1371 8.02527C19.1371 8.02527 19.9371 7.27527 19.9371 5.80027C19.9371 4.32527 19.1371 4.02527 18.1371 4.02527C17.1621 4.02527 16.3621 4.32527 16.3621 5.80027C16.3621 7.27527 17.1621 8.02527 18.1371 8.02527Z" fill="#070C1D"/>
</svg>
