<svg width="51" height="50" viewBox="0 0 51 50" fill="none" xmlns="http://www.w3.org/2000/svg">
<g clip-path="url(#clip0_1074_481)">
<path d="M40.4268 5.16121L50.6602 15.8466L26.7456 42.6779L24.8185 44.8404L0.660156 15.7487L11.3018 5.16121H40.4268ZM4.10599 15.9945L18.5518 7.65496H12.3289L4.03307 15.9091L4.10599 15.9945ZM29.3497 7.65496L7.60391 20.2091L12.081 25.6008L34.5997 12.5987L34.1831 11.8779L40.1227 8.44871L39.3622 7.65496H29.3497ZM45.0164 13.5591L17.8622 29.2383H28.4893V28.405H36.1289L47.2664 15.9091L45.0164 13.5591ZM30.1643 35.0966H19.9685L24.8852 41.0195L30.1643 35.0966Z" fill="#070C1D"/>
</g>
<defs>
<clipPath id="clip0_1074_481">
<rect width="50" height="50" fill="white" transform="translate(0.660156 0.000793457)"/>
</clipPath>
</defs>
</svg>
