<svg width="336" height="256" viewBox="0 0 336 256" fill="none" xmlns="http://www.w3.org/2000/svg">
<g clip-path="url(#clip0_955_663)">
<rect width="336" height="256" rx="16" fill="white"/>
<path d="M336 137.455V244.999C335.997 247.915 334.836 250.712 332.774 252.774C330.712 254.836 327.916 255.997 324.999 256H242.507L243.273 255.03L335.03 138.686L336 137.455Z" fill="#F2F2F2"/>
<path d="M131.303 99.5724H36.5789C35.8027 99.5724 35.0583 99.8807 34.5095 100.43C33.9607 100.978 33.6523 101.723 33.6523 102.499C33.6523 103.275 33.9607 104.019 34.5095 104.568C35.0583 105.117 35.8027 105.425 36.5789 105.425H131.303C132.079 105.425 132.824 105.117 133.373 104.568C133.921 104.019 134.23 103.275 134.23 102.499C134.23 101.723 133.921 100.978 133.373 100.43C132.824 99.8807 132.079 99.5724 131.303 99.5724Z" fill="#E6E6E6"/>
<path d="M65.9483 83.163H36.5789C35.8027 83.163 35.0583 83.4713 34.5095 84.0201C33.9607 84.569 33.6523 85.3133 33.6523 86.0895C33.6523 86.8657 33.9607 87.6101 34.5095 88.1589C35.0583 88.7077 35.8027 89.0161 36.5789 89.0161H65.9484C66.7245 89.0161 67.4689 88.7077 68.0178 88.1589C68.5666 87.6101 68.8749 86.8657 68.8749 86.0895C68.8749 85.3133 68.5666 84.569 68.0178 84.0201C67.4689 83.4713 66.7245 83.163 65.9483 83.163Z" fill="#E6E6E6"/>
<path d="M324.999 0H11.0012C8.08459 0.00351185 5.28843 1.16369 3.22606 3.22606C1.16369 5.28843 0.00351185 8.08459 0 11.0012V244.999C0.00351185 247.915 1.16369 250.712 3.22606 252.774C5.28843 254.836 8.08459 255.996 11.0012 256H324.999C327.915 255.996 330.712 254.836 332.774 252.774C334.836 250.712 335.996 247.915 336 244.999V11.0012C335.996 8.08459 334.836 5.28843 332.774 3.22606C330.712 1.16369 327.915 0.00351185 324.999 0ZM335.03 244.999C335.03 246.316 334.771 247.621 334.267 248.838C333.763 250.055 333.024 251.161 332.092 252.092C331.161 253.024 330.055 253.763 328.838 254.267C327.621 254.771 326.316 255.03 324.999 255.03H11.0012C8.34069 255.03 5.78914 253.973 3.90786 252.092C2.02659 250.211 0.969697 247.659 0.969697 244.999V76.4487C0.969697 56.4305 8.92193 37.2321 23.077 23.077C37.2321 8.92193 56.4305 0.969697 76.4487 0.969697H324.999C326.316 0.969697 327.621 1.22917 328.838 1.7333C330.055 2.23743 331.161 2.97635 332.092 3.90786C333.024 4.83938 333.763 5.94524 334.267 7.16232C334.771 8.3794 335.03 9.68386 335.03 11.0012V244.999Z" fill="#E6E6E6"/>
<path d="M305.402 42.312H30.6235C30.4949 42.312 30.3716 42.2609 30.2807 42.17C30.1897 42.0791 30.1387 41.9557 30.1387 41.8271C30.1387 41.6985 30.1897 41.5752 30.2807 41.4843C30.3716 41.3934 30.4949 41.3423 30.6235 41.3423H305.402C305.531 41.3423 305.654 41.3934 305.745 41.4843C305.836 41.5752 305.887 41.6985 305.887 41.8271C305.887 41.9557 305.836 42.0791 305.745 42.17C305.654 42.2609 305.531 42.312 305.402 42.312Z" fill="#E6E6E6"/>
<path d="M44.3707 27.7566C46.6351 27.7566 48.4709 25.88 48.4709 23.5651C48.4709 21.2502 46.6351 19.3735 44.3707 19.3735C42.1062 19.3735 40.2705 21.2502 40.2705 23.5651C40.2705 25.88 42.1062 27.7566 44.3707 27.7566Z" fill="#E6E6E6"/>
<path d="M58.5347 27.7566C60.7992 27.7566 62.6349 25.88 62.6349 23.5651C62.6349 21.2502 60.7992 19.3735 58.5347 19.3735C56.2703 19.3735 54.4346 21.2502 54.4346 23.5651C54.4346 25.88 56.2703 27.7566 58.5347 27.7566Z" fill="#E6E6E6"/>
<path d="M72.6998 27.7566C74.9642 27.7566 76.8 25.88 76.8 23.5651C76.8 21.2502 74.9642 19.3735 72.6998 19.3735C70.4353 19.3735 68.5996 21.2502 68.5996 23.5651C68.5996 25.88 70.4353 27.7566 72.6998 27.7566Z" fill="#E6E6E6"/>
<path d="M88.8501 26.878C88.7855 26.8781 88.7216 26.8652 88.6621 26.8402C88.6025 26.8151 88.5486 26.7784 88.5035 26.7322L85.7369 23.904C85.6483 23.8135 85.5986 23.6918 85.5986 23.565C85.5986 23.4383 85.6483 23.3166 85.7369 23.226L88.5035 20.3981C88.5479 20.3519 88.601 20.3149 88.6597 20.2893C88.7184 20.2637 88.7816 20.25 88.8457 20.249C88.9098 20.2479 88.9734 20.2596 89.0329 20.2833C89.0924 20.3071 89.1466 20.3423 89.1924 20.3871C89.2382 20.4319 89.2747 20.4854 89.2997 20.5444C89.3248 20.6033 89.3379 20.6667 89.3383 20.7308C89.3387 20.7948 89.3263 20.8583 89.3021 20.9176C89.2778 20.9769 89.2419 21.0308 89.1967 21.0761L86.7618 23.565L89.1967 26.0541C89.2634 26.1223 89.3085 26.2088 89.3264 26.3025C89.3442 26.3963 89.334 26.4932 89.297 26.5811C89.26 26.6691 89.1979 26.7442 89.1184 26.797C89.0389 26.8498 88.9455 26.878 88.8501 26.878Z" fill="#E6E6E6"/>
<path d="M93.4995 26.8779C93.404 26.8779 93.3107 26.8498 93.2312 26.797C93.1517 26.7442 93.0896 26.6691 93.0526 26.5811C93.0156 26.4931 93.0054 26.3962 93.0232 26.3025C93.041 26.2087 93.0861 26.1223 93.1529 26.0541L95.5875 23.565L93.1529 21.0761C93.0644 20.9839 93.016 20.8605 93.018 20.7327C93.02 20.605 93.0724 20.4832 93.1637 20.3939C93.2551 20.3045 93.378 20.2548 93.5058 20.2556C93.6335 20.2564 93.7558 20.3076 93.8461 20.3981L96.6124 23.226C96.7011 23.3165 96.7507 23.4382 96.7507 23.565C96.7507 23.6917 96.7011 23.8134 96.6124 23.904L93.8461 26.7321C93.801 26.7783 93.7471 26.8151 93.6875 26.8401C93.628 26.8652 93.564 26.878 93.4995 26.8779Z" fill="#E6E6E6"/>
<path d="M280.897 19.8589H275.753C275.614 19.8588 275.476 19.8863 275.347 19.9396C275.218 19.993 275.101 20.0712 275.002 20.1698C274.904 20.2684 274.825 20.3855 274.772 20.5143C274.719 20.6432 274.691 20.7812 274.691 20.9207V26.0698C274.691 26.2092 274.719 26.3473 274.772 26.4762C274.825 26.605 274.904 26.7221 275.002 26.8207C275.101 26.9193 275.218 26.9975 275.347 27.0509C275.476 27.1042 275.614 27.1317 275.753 27.1316H280.897C281.18 27.1319 281.45 27.0202 281.65 26.8212C281.85 26.6222 281.963 26.3519 281.964 26.0698V20.9207C281.963 20.6386 281.85 20.3683 281.65 20.1693C281.45 19.9702 281.18 19.8586 280.897 19.8589Z" fill="#E6E6E6"/>
<path d="M268.292 19.8589H263.148C263.008 19.8588 262.87 19.8863 262.741 19.9396C262.613 19.993 262.495 20.0712 262.397 20.1698C262.298 20.2684 262.22 20.3855 262.167 20.5143C262.113 20.6432 262.086 20.7812 262.086 20.9207V26.0698C262.086 26.2092 262.113 26.3473 262.167 26.4762C262.22 26.605 262.298 26.7221 262.397 26.8207C262.495 26.9193 262.613 26.9975 262.741 27.0509C262.87 27.1042 263.008 27.1317 263.148 27.1316H268.292C268.574 27.1319 268.845 27.0202 269.045 26.8212C269.245 26.6222 269.358 26.3519 269.359 26.0698V20.9207C269.358 20.6386 269.245 20.3683 269.045 20.1693C268.845 19.9702 268.574 19.8586 268.292 19.8589Z" fill="#E6E6E6"/>
<path d="M292.776 20.1013H287.632C287.493 20.1013 287.355 20.1287 287.226 20.1821C287.097 20.2354 286.98 20.3136 286.881 20.4122C286.783 20.5108 286.704 20.6279 286.651 20.7567C286.598 20.8856 286.57 21.0237 286.57 21.1631V26.3122C286.57 26.4517 286.598 26.5898 286.651 26.7186C286.704 26.8475 286.783 26.9645 286.881 27.0631C286.98 27.1617 287.097 27.24 287.226 27.2933C287.355 27.3466 287.493 27.3741 287.632 27.374H292.776C293.059 27.3743 293.329 27.2627 293.529 27.0636C293.729 26.8646 293.842 26.5944 293.843 26.3122V21.1631C293.842 20.881 293.729 20.6108 293.529 20.4117C293.329 20.2127 293.059 20.101 292.776 20.1013Z" fill="#E6E6E6"/>
<path d="M188.573 22.0601H147.453C147.109 22.0601 146.78 22.1964 146.537 22.4392C146.295 22.682 146.158 23.0113 146.158 23.3546C146.158 23.6979 146.295 24.0272 146.537 24.27C146.78 24.5128 147.109 24.6491 147.453 24.6491H188.573C188.916 24.6491 189.245 24.5128 189.488 24.27C189.731 24.0272 189.867 23.6979 189.867 23.3546C189.867 23.0113 189.731 22.682 189.488 22.4392C189.245 22.1964 188.916 22.0601 188.573 22.0601Z" fill="#E6E6E6"/>
<path d="M78.3552 199.004L53.7652 198.227C50.3546 198.119 46.5194 198.125 44.0868 199.887C41.3259 201.888 41.7439 205.432 44.0362 207.73C46.3285 210.029 49.9887 211.342 53.5811 212.41C72.6666 218.083 93.789 219.234 114.298 217.951C134.807 216.667 154.895 213.039 174.883 209.422C176.778 209.079 178.927 208.586 179.7 207.266C180.448 205.99 179.469 204.451 177.949 203.626C176.429 202.801 174.502 202.523 172.644 202.278C138.972 197.853 104.936 196.882 71.0675 199.381" fill="#A688E2"/>
<path d="M122.536 180.092V174.274C118.314 174.334 103.205 174.231 99.263 174.274C98.9697 194.609 97.1717 190.626 113.832 190.705C114.597 190.708 115.331 191.014 115.872 191.556C116.412 192.098 116.717 192.832 116.718 193.598V193.685C116.718 194.452 116.413 195.188 115.871 195.73C115.328 196.272 114.593 196.577 113.825 196.577H99.263V202.395H122.536C122.568 202.376 122.512 196.777 122.536 196.577C123.52 179.721 121.573 185.783 107.425 185.108C106.792 185.075 106.196 184.801 105.76 184.341C105.323 183.881 105.08 183.271 105.081 182.637V182.565C105.081 181.909 105.342 181.28 105.805 180.816C106.269 180.353 106.898 180.092 107.554 180.092H122.536Z" fill="#3F3D56"/>
<path d="M151.142 180.092V174.274C146.92 174.334 131.811 174.231 127.869 174.274C127.574 194.786 125.747 190.555 142.877 190.708C143.528 190.714 144.15 190.978 144.609 191.441C145.067 191.904 145.324 192.529 145.324 193.18C145.324 193.486 145.324 193.799 145.324 194.105C145.324 194.43 145.26 194.751 145.136 195.051C145.012 195.351 144.829 195.624 144.6 195.853C144.37 196.083 144.098 196.265 143.798 196.389C143.498 196.513 143.176 196.577 142.851 196.577H127.869V202.395H151.142C151.175 202.376 151.119 196.777 151.142 196.577C152.126 179.721 150.179 185.783 136.032 185.108C135.399 185.075 134.802 184.801 134.366 184.341C133.93 183.881 133.687 183.271 133.688 182.637V182.565C133.688 181.909 133.948 181.28 134.412 180.816C134.876 180.353 135.504 180.092 136.16 180.092H151.142Z" fill="#3F3D56"/>
<path d="M92.4754 180.092V174.274H69.2027C69.1862 179.463 69.2145 193.198 69.2026 198.516C64.6408 206.239 90.5565 200.892 92.4767 202.397C92.4754 202.395 92.4754 196.577 92.4754 196.577C74.7682 196.484 74.3232 199.799 74.8929 183.763C74.9271 182.778 75.3422 181.845 76.0507 181.16C76.7592 180.475 77.7058 180.092 78.691 180.092C83.8102 180.092 92.4754 180.092 92.4754 180.092Z" fill="#3F3D56"/>
<path d="M138.476 129.509L113.886 128.861C110.476 128.771 106.64 128.776 104.208 130.245C101.447 131.913 101.865 134.867 104.157 136.783C106.45 138.699 110.11 139.794 113.702 140.684C132.788 145.413 153.91 146.373 174.419 145.303C194.929 144.233 215.016 141.208 235.004 138.193C236.9 137.907 239.048 137.496 239.821 136.396C240.569 135.332 239.59 134.049 238.07 133.362C236.55 132.674 234.623 132.443 232.765 132.238C199.036 128.548 165.054 127.74 131.189 129.823" fill="#A688E2"/>
<path d="M134.172 103.971C133.776 112.953 137.077 115.781 125.686 114.636C124.917 109.278 128.82 101.842 119.869 103.729C121.662 107.617 114.874 137.108 125.685 131.848C126.292 122.988 122.29 119.101 134.172 120.457C135.125 125.934 130.678 133.994 139.99 132.091C138.197 128.202 144.985 98.7132 134.172 103.971Z" fill="#3F3D56"/>
<path d="M193.808 103.971C194.607 104.464 186.492 113.049 186.317 113.753C186.073 113.152 178.328 104.753 179.263 103.971C168.485 98.6452 175.202 128.308 173.443 132.093C173.445 132.092 179.263 132.092 179.263 132.092V113.669C187.441 124.699 185.922 122.843 193.808 113.127L193.808 132.092C204.586 137.42 197.869 107.753 199.629 103.97C199.627 103.971 193.808 103.971 193.808 103.971Z" fill="#3F3D56"/>
<path d="M168.112 103.971H144.839C143.472 112.127 147.993 109.392 153.567 109.789L153.566 132.092H159.385V109.789C164.933 109.412 169.497 112.091 168.112 103.971Z" fill="#3F3D56"/>
<path d="M210.293 126.274C208.949 118.9 208.949 111.345 210.293 103.971H204.475C204.508 107.657 204.465 122.532 204.468 129.334C204.468 130.068 204.759 130.773 205.278 131.292C205.796 131.811 206.5 132.103 207.234 132.104C213.096 132.112 224.287 132.069 227.748 132.092L227.748 126.274H210.293Z" fill="#3F3D56"/>
<path d="M61.664 127.244H38.016C36.8587 127.244 35.7488 127.703 34.9304 128.522C34.1121 129.34 33.6523 130.45 33.6523 131.607C33.6523 132.765 34.1121 133.875 34.9304 134.693C35.7488 135.511 36.8587 135.971 38.016 135.971H61.6641C62.8214 135.971 63.9313 135.511 64.7496 134.693C65.568 133.875 66.0277 132.765 66.0277 131.607C66.0277 130.45 65.568 129.34 64.7496 128.522C63.9313 127.703 62.8214 127.244 61.664 127.244Z" fill="#E6E6E6"/>
<path d="M276.069 250.942L271.268 250.942L268.984 232.425L276.069 232.426L276.069 250.942Z" fill="#FFB6B6"/>
<path d="M276.238 255.95L261.476 255.949V255.763C261.476 254.239 262.081 252.777 263.159 251.7C264.236 250.622 265.698 250.017 267.221 250.017L269.918 247.971L274.949 250.017L276.238 250.017L276.238 255.95Z" fill="#2F2E41"/>
<path d="M293.038 250.942L288.238 250.942L285.954 232.425L293.039 232.426L293.038 250.942Z" fill="#FFB6B6"/>
<path d="M293.208 255.95L278.445 255.949V255.763C278.445 254.239 279.051 252.777 280.128 251.7C281.206 250.622 282.667 250.017 284.191 250.017L286.888 247.971L291.919 250.017L293.208 250.017L293.208 255.95Z" fill="#2F2E41"/>
<path d="M264.116 150.051C264.116 150.051 259.497 164.237 260.35 166.104C261.202 167.971 262.657 166.516 261.202 167.971C259.748 169.425 258.478 167.879 259.84 170.349C261.202 172.819 263.266 193.154 264.174 194.138C265.081 195.122 266.329 195.149 265.22 196.105C264.111 197.062 262.657 195.122 264.111 197.062C265.566 199.001 269.426 243.741 269.426 243.741H276.966C276.966 243.741 278.844 241.576 277.781 240.168C276.717 238.759 277.874 238.216 277.781 237.275C277.687 236.335 278.041 234.307 278.106 233.381C278.172 232.456 279.446 210.41 276.385 197.675L281.967 173.427L284.758 202.734C284.758 202.734 281.648 227.317 284.758 235.22C284.758 235.22 282.251 237.308 283.363 238.518C284.475 239.728 285.445 238.759 284.475 239.729C283.505 240.698 285.93 244.092 285.93 244.092L294.172 243.607L298.837 197.675C298.837 197.675 299.624 192.885 298.837 192.064C298.051 191.244 298.051 194.153 298.051 191.244V187.365C298.051 187.365 301.566 163.508 301.505 162.103C301.445 160.698 295.627 150.516 295.627 150.516L264.116 150.051Z" fill="#2F2E41"/>
<path d="M288.495 92.6775L276.459 91.8497L272.858 97.5283L264.185 101.055V129.028C265.087 131.736 265.553 134.571 265.566 137.425C265.533 142.999 264.101 149.564 264.597 151.001C269.445 165.062 296.112 151.001 296.112 151.001L295.627 135.971L296.285 102.003L290.836 97.6567L288.495 92.6775Z" fill="#E6E6E6"/>
<path d="M263.628 156.123L262.798 147.279L257.68 147.048L258.89 156.368C258.579 156.826 258.403 157.361 258.38 157.914C258.357 158.467 258.489 159.015 258.761 159.497C259.032 159.978 259.433 160.375 259.918 160.642C260.402 160.908 260.952 161.035 261.504 161.006C262.057 160.978 262.59 160.796 263.045 160.48C263.5 160.165 263.858 159.73 264.078 159.222C264.299 158.715 264.374 158.156 264.294 157.609C264.214 157.061 263.984 156.547 263.628 156.123Z" fill="#FFB6B6"/>
<path d="M266.147 100.309L266.005 100.333C264.685 100.556 263.44 101.098 262.376 101.912C261.313 102.725 260.464 103.786 259.903 105.001C258.437 108.171 253.678 129.009 255.764 132.151C257.383 134.589 256.989 134.113 256.229 135.952C255.468 137.79 254.243 135.828 255.247 138.746C256.251 141.664 257.354 141.248 256.422 142.375C255.49 143.503 254.534 143.282 255.441 145.17C256.347 147.058 256.2 147.695 256.371 148.406C256.542 149.117 256.393 154.118 256.393 154.118C256.393 154.118 261.861 153.704 264.582 155.004C264.582 155.004 263.063 149.953 263.922 149.144C264.78 148.336 265.81 148.238 265.075 147.061C264.34 145.884 262.673 145.834 264.487 145.247C266.302 144.659 265.717 134.117 265.717 134.117C268.705 126.291 267.525 113.419 266.147 100.309Z" fill="#E6E6E6"/>
<path d="M299.114 156.755L299.497 147.88L304.597 147.391L303.859 156.76C304.192 157.201 304.395 157.727 304.446 158.278C304.496 158.829 304.392 159.383 304.145 159.878C303.898 160.373 303.518 160.789 303.047 161.08C302.577 161.371 302.035 161.525 301.481 161.524C300.928 161.523 300.386 161.368 299.916 161.077C299.446 160.785 299.067 160.368 298.821 159.872C298.575 159.377 298.472 158.823 298.524 158.272C298.576 157.721 298.78 157.196 299.114 156.755Z" fill="#FFB6B6"/>
<path d="M293.782 101.138L293.925 101.155C295.255 101.312 296.526 101.79 297.629 102.549C298.731 103.308 299.633 104.324 300.254 105.509C301.878 108.601 307.016 129.543 305.758 132.417C304.585 135.097 304.633 134.438 305.486 136.235C306.338 138.033 307.463 136.012 306.607 138.977C305.752 141.942 304.629 141.581 305.616 142.66C306.604 143.739 307.548 143.47 306.738 145.402C305.928 147.333 306.107 147.962 305.972 148.681C305.837 149.4 306.238 154.387 306.238 154.387C306.238 154.387 300.756 154.249 298.105 155.685C298.105 155.685 299.366 150.564 298.468 149.799C297.57 149.035 296.537 148.989 297.211 147.777C297.886 146.564 299.548 146.43 297.707 145.935C295.865 145.44 295.917 134.881 295.917 134.881L293.782 101.138Z" fill="#E6E6E6"/>
<path d="M282.772 90.0715C287.956 90.0715 292.159 85.8684 292.159 80.6837C292.159 75.499 287.956 71.296 282.772 71.296C277.587 71.296 273.384 75.499 273.384 80.6837C273.384 85.8684 277.587 90.0715 282.772 90.0715Z" fill="#FFB6B6"/>
<path d="M289.305 88.7196C290.611 87.6978 290.738 85.7501 291.852 84.5224C293.715 82.4697 294.59 80.2612 293.614 77.8289C292.751 75.6776 292.934 73.0332 291.076 71.6484C291.989 71.3179 292.203 70.6316 291.398 70.6189C290.855 70.6103 288.83 71.6486 289.804 70.3552C290.778 69.0618 288.934 69.5724 289.056 69.0429C289.178 68.5135 289.96 68.2203 290.305 68.64C290.014 68.3424 289.658 68.1154 289.266 67.9761C288.874 67.8369 288.454 67.7891 288.041 67.8364C287.627 67.8837 287.23 68.0249 286.879 68.2492C286.528 68.4735 286.233 68.7749 286.016 69.1306C284.918 67.485 283.753 66.3527 282.073 67.397C280.423 68.4226 280.444 69.6904 278.67 69.3857C277.835 69.2425 277.757 70.8186 277.187 71.4444C276.923 71.777 276.581 72.0384 276.19 72.2049C275.8 72.3713 275.374 72.4375 274.952 72.3974C274.12 72.2402 273.484 71.2037 273.95 70.4972L271.99 74.9692L271.2 74.0001C269.945 74.8182 270.357 76.953 271.621 77.7582C272.884 78.5635 274.526 78.3914 275.982 78.0344C277.733 77.6047 279.542 77.4547 281.34 77.59C284.087 77.9781 286.001 81.2626 284.983 83.8439C286.039 82.8074 287.992 83.6676 288.538 85.0421C289.085 86.4167 288.684 87.9654 288.279 89.3881" fill="#2F2E41"/>
</g>
<defs>
<clipPath id="clip0_955_663">
<rect width="336" height="256" rx="16" fill="white"/>
</clipPath>
</defs>
</svg>
