<svg width="588" height="428" viewBox="0 0 588 428" fill="none" xmlns="http://www.w3.org/2000/svg">
<g clip-path="url(#clip0_957_734)">
<rect y="0.172363" width="588" height="427.655" rx="16" fill="white"/>
<path d="M342.509 75.5629C353.53 75.5629 362.463 66.6292 362.463 55.6091C362.463 44.5889 353.53 35.6553 342.509 35.6553C331.489 35.6553 322.556 44.5889 322.556 55.6091C322.556 66.6292 331.489 75.5629 342.509 75.5629Z" fill="#F2F2F2"/>
<path d="M497.297 371.7C526.956 349.11 541.122 311.149 532.253 274.936C532.033 274.037 531.8 273.139 531.555 272.243C525.676 250.748 511.13 230.319 489.93 223.45C472.129 217.683 452.699 222.118 434.129 219.825C397.674 215.323 369.411 185.826 349.525 154.944C329.638 124.061 314.355 89.4914 287.93 63.9776C244.373 21.9223 173.321 12.8678 119.317 40.2426C65.3122 67.6176 30.9121 128.351 32.3791 188.879C33.8463 249.408 69.7793 307.277 121.963 337.981C141.133 349.26 163.305 357.251 185.371 354.454C204.517 352.028 221.914 341.741 240.97 338.687C270.931 333.885 300.701 347.431 326.614 363.216C352.528 379.001 377.559 397.712 407.006 405.03C435.599 412.136 471.023 391.712 497.297 371.7Z" fill="#F2F2F2"/>
<path d="M454.684 41.5137C454.034 41.0802 453.377 40.6692 452.726 40.2507C433.932 28.2308 413.788 18.4659 392.71 11.1578L387.822 78.5803H356.839V1.31575C354.888 0.912201 352.923 0.531073 350.958 0.172363V78.5803H314.137C293.868 78.5803 274.428 70.5282 260.095 56.1952C245.762 41.8623 237.71 22.4227 237.71 2.15283C235.737 2.57879 233.779 3.03459 231.821 3.52034V78.5804H201.831L197.176 14.2891C175.515 22.5964 154.95 33.521 135.941 46.8196C135.612 47.0438 135.283 47.2755 134.962 47.4996C133.31 48.658 131.681 49.8387 130.06 51.0344V308.252H218.444L216.882 286.617L208.288 167.832H381.358L372.764 286.617L371.202 308.252H458.608V44.1143C457.307 43.2325 456 42.3656 454.684 41.5137ZM231.821 148.215H206.868L202.257 84.4692H231.821V148.215ZM350.958 148.215H309.048V146.952C309.048 146.345 308.929 145.744 308.696 145.183C308.464 144.622 308.123 144.112 307.693 143.684C307.263 143.255 306.753 142.915 306.192 142.683C305.631 142.451 305.03 142.333 304.422 142.334H286.203C285.596 142.333 284.996 142.453 284.435 142.685C283.875 142.917 283.366 143.257 282.937 143.686C282.508 144.115 282.168 144.624 281.936 145.184C281.704 145.745 281.584 146.345 281.585 146.952V148.215H237.71V84.4692H350.958V148.215ZM356.839 148.215V84.4692H387.396L382.786 148.215H356.839Z" fill="#3F3D56"/>
<path d="M0 324.723C6.49209 332.416 13.514 339.645 21.0144 346.358L566.986 347.105C574.486 340.392 581.508 333.163 588 325.47L0 324.723Z" fill="#3F3D56"/>
<path d="M370.24 255.448V319.495C370.241 320.312 370.565 321.094 371.143 321.671C371.72 322.249 372.502 322.573 373.318 322.574H468.23C469.047 322.573 469.829 322.249 470.406 321.671C470.984 321.094 471.308 320.312 471.309 319.495V255.448C471.307 254.632 470.982 253.851 470.405 253.275C469.828 252.698 469.046 252.374 468.23 252.373H373.318C372.503 252.374 371.721 252.698 371.144 253.275C370.567 253.851 370.242 254.632 370.24 255.448Z" fill="#3F3D56"/>
<path d="M372.467 256.245V318.705C372.468 319.141 372.641 319.559 372.949 319.868C373.258 320.176 373.676 320.35 374.112 320.351H467.44C467.876 320.35 468.294 320.176 468.603 319.868C468.911 319.559 469.085 319.141 469.085 318.705V256.245C469.085 255.808 468.912 255.389 468.604 255.08C468.295 254.771 467.877 254.597 467.44 254.596H374.112C373.675 254.597 373.257 254.771 372.949 255.08C372.64 255.389 372.467 255.808 372.467 256.245Z" fill="#A688E2"/>
<path d="M368.255 331.986C368.429 332.204 368.65 332.38 368.902 332.5C369.153 332.621 369.429 332.682 369.708 332.681H471.336C471.614 332.681 471.889 332.618 472.139 332.499C472.39 332.379 472.611 332.205 472.786 331.989C472.961 331.773 473.086 331.521 473.151 331.251C473.217 330.981 473.221 330.699 473.164 330.427L471.587 322.934C471.521 322.628 471.38 322.344 471.177 322.107C470.974 321.869 470.714 321.687 470.422 321.575C470.211 321.492 469.986 321.45 469.759 321.45H371.279C371.052 321.45 370.827 321.492 370.616 321.575C370.324 321.687 370.064 321.869 369.861 322.107C369.657 322.344 369.517 322.628 369.451 322.934L367.874 330.427C367.817 330.699 367.823 330.98 367.889 331.25C367.955 331.519 368.08 331.771 368.255 331.986Z" fill="#2F2E41"/>
<path d="M466.272 324.678H468.672C468.874 324.678 469.037 324.514 469.037 324.313V323.165C469.037 322.963 468.874 322.8 468.672 322.8H466.272C466.07 322.8 465.907 322.963 465.907 323.165V324.313C465.907 324.514 466.07 324.678 466.272 324.678Z" fill="#3F3D56"/>
<path d="M460.012 324.678H462.412C462.614 324.678 462.777 324.514 462.777 324.313V323.165C462.777 322.963 462.614 322.8 462.412 322.8H460.012C459.811 322.8 459.647 322.963 459.647 323.165V324.313C459.647 324.514 459.811 324.678 460.012 324.678Z" fill="#3F3D56"/>
<path d="M453.751 324.678H456.152C456.353 324.678 456.517 324.514 456.517 324.313V323.165C456.517 322.963 456.353 322.8 456.152 322.8H453.751C453.55 322.8 453.387 322.963 453.387 323.165V324.313C453.387 324.514 453.55 324.678 453.751 324.678Z" fill="#3F3D56"/>
<path d="M447.492 324.678H449.892C450.093 324.678 450.257 324.514 450.257 324.313V323.165C450.257 322.963 450.093 322.8 449.892 322.8H447.492C447.29 322.8 447.127 322.963 447.127 323.165V324.313C447.127 324.514 447.29 324.678 447.492 324.678Z" fill="#3F3D56"/>
<path d="M441.231 324.678H443.631C443.833 324.678 443.996 324.514 443.996 324.313V323.165C443.996 322.963 443.833 322.8 443.631 322.8H441.231C441.029 322.8 440.866 322.963 440.866 323.165V324.313C440.866 324.514 441.029 324.678 441.231 324.678Z" fill="#3F3D56"/>
<path d="M434.971 324.678H437.371C437.573 324.678 437.736 324.514 437.736 324.313V323.165C437.736 322.963 437.573 322.8 437.371 322.8H434.971C434.77 322.8 434.606 322.963 434.606 323.165V324.313C434.606 324.514 434.77 324.678 434.971 324.678Z" fill="#3F3D56"/>
<path d="M428.71 324.678H431.111C431.312 324.678 431.476 324.514 431.476 324.313V323.165C431.476 322.963 431.312 322.8 431.111 322.8H428.71C428.509 322.8 428.345 322.963 428.345 323.165V324.313C428.345 324.514 428.509 324.678 428.71 324.678Z" fill="#3F3D56"/>
<path d="M422.451 324.678H424.851C425.052 324.678 425.216 324.514 425.216 324.313V323.165C425.216 322.963 425.052 322.8 424.851 322.8H422.451C422.249 322.8 422.086 322.963 422.086 323.165V324.313C422.086 324.514 422.249 324.678 422.451 324.678Z" fill="#3F3D56"/>
<path d="M416.19 324.678H418.59C418.792 324.678 418.955 324.514 418.955 324.313V323.165C418.955 322.963 418.792 322.8 418.59 322.8H416.19C415.988 322.8 415.825 322.963 415.825 323.165V324.313C415.825 324.514 415.988 324.678 416.19 324.678Z" fill="#3F3D56"/>
<path d="M409.93 324.678H412.33C412.532 324.678 412.695 324.514 412.695 324.313V323.165C412.695 322.963 412.532 322.8 412.33 322.8H409.93C409.729 322.8 409.565 322.963 409.565 323.165V324.313C409.565 324.514 409.729 324.678 409.93 324.678Z" fill="#3F3D56"/>
<path d="M403.669 324.678H406.07C406.271 324.678 406.435 324.514 406.435 324.313V323.165C406.435 322.963 406.271 322.8 406.07 322.8H403.669C403.468 322.8 403.304 322.963 403.304 323.165V324.313C403.304 324.514 403.468 324.678 403.669 324.678Z" fill="#3F3D56"/>
<path d="M397.41 324.678H399.81C400.011 324.678 400.175 324.514 400.175 324.313V323.165C400.175 322.963 400.011 322.8 399.81 322.8H397.41C397.208 322.8 397.045 322.963 397.045 323.165V324.313C397.045 324.514 397.208 324.678 397.41 324.678Z" fill="#3F3D56"/>
<path d="M391.149 324.678H393.549C393.751 324.678 393.914 324.514 393.914 324.313V323.165C393.914 322.963 393.751 322.8 393.549 322.8H391.149C390.947 322.8 390.784 322.963 390.784 323.165V324.313C390.784 324.514 390.947 324.678 391.149 324.678Z" fill="#3F3D56"/>
<path d="M384.889 324.678H387.289C387.491 324.678 387.654 324.514 387.654 324.313V323.165C387.654 322.963 387.491 322.8 387.289 322.8H384.889C384.688 322.8 384.524 322.963 384.524 323.165V324.313C384.524 324.514 384.688 324.678 384.889 324.678Z" fill="#3F3D56"/>
<path d="M378.629 324.678H381.03C381.231 324.678 381.395 324.514 381.395 324.313V323.165C381.395 322.963 381.231 322.8 381.03 322.8H378.629C378.428 322.8 378.264 322.963 378.264 323.165V324.313C378.264 324.514 378.428 324.678 378.629 324.678Z" fill="#3F3D56"/>
<path d="M372.369 324.678H374.769C374.97 324.678 375.134 324.514 375.134 324.313V323.165C375.134 322.963 374.97 322.8 374.769 322.8H372.369C372.167 322.8 372.004 322.963 372.004 323.165V324.313C372.004 324.514 372.167 324.678 372.369 324.678Z" fill="#3F3D56"/>
<path d="M466.346 327.808H468.746C468.948 327.808 469.111 327.645 469.111 327.443V326.295C469.111 326.093 468.948 325.93 468.746 325.93H466.346C466.145 325.93 465.981 326.093 465.981 326.295V327.443C465.981 327.645 466.145 327.808 466.346 327.808Z" fill="#3F3D56"/>
<path d="M460.085 327.808H462.486C462.687 327.808 462.851 327.645 462.851 327.443V326.295C462.851 326.093 462.687 325.93 462.486 325.93H460.085C459.884 325.93 459.72 326.093 459.72 326.295V327.443C459.72 327.645 459.884 327.808 460.085 327.808Z" fill="#3F3D56"/>
<path d="M453.826 327.808H456.226C456.427 327.808 456.591 327.645 456.591 327.443V326.295C456.591 326.093 456.427 325.93 456.226 325.93H453.826C453.624 325.93 453.461 326.093 453.461 326.295V327.443C453.461 327.645 453.624 327.808 453.826 327.808Z" fill="#3F3D56"/>
<path d="M447.565 327.808H449.965C450.167 327.808 450.33 327.645 450.33 327.443V326.295C450.33 326.093 450.167 325.93 449.965 325.93H447.565C447.363 325.93 447.2 326.093 447.2 326.295V327.443C447.2 327.645 447.363 327.808 447.565 327.808Z" fill="#3F3D56"/>
<path d="M441.305 327.808H443.706C443.907 327.808 444.07 327.645 444.07 327.443V326.295C444.07 326.093 443.907 325.93 443.706 325.93H441.305C441.104 325.93 440.94 326.093 440.94 326.295V327.443C440.94 327.645 441.104 327.808 441.305 327.808Z" fill="#3F3D56"/>
<path d="M435.044 327.808H437.445C437.646 327.808 437.81 327.645 437.81 327.443V326.295C437.81 326.093 437.646 325.93 437.445 325.93H435.044C434.843 325.93 434.679 326.093 434.679 326.295V327.443C434.679 327.645 434.843 327.808 435.044 327.808Z" fill="#3F3D56"/>
<path d="M428.785 327.808H431.185C431.386 327.808 431.55 327.645 431.55 327.443V326.295C431.55 326.093 431.386 325.93 431.185 325.93H428.785C428.583 325.93 428.42 326.093 428.42 326.295V327.443C428.42 327.645 428.583 327.808 428.785 327.808Z" fill="#3F3D56"/>
<path d="M422.524 327.808H424.924C425.126 327.808 425.289 327.645 425.289 327.443V326.295C425.289 326.093 425.126 325.93 424.924 325.93H422.524C422.322 325.93 422.159 326.093 422.159 326.295V327.443C422.159 327.645 422.322 327.808 422.524 327.808Z" fill="#3F3D56"/>
<path d="M416.264 327.808H418.664C418.866 327.808 419.029 327.645 419.029 327.443V326.295C419.029 326.093 418.866 325.93 418.664 325.93H416.264C416.063 325.93 415.899 326.093 415.899 326.295V327.443C415.899 327.645 416.063 327.808 416.264 327.808Z" fill="#3F3D56"/>
<path d="M410.004 327.808H412.405C412.606 327.808 412.77 327.645 412.77 327.443V326.295C412.77 326.093 412.606 325.93 412.405 325.93H410.004C409.803 325.93 409.639 326.093 409.639 326.295V327.443C409.639 327.645 409.803 327.808 410.004 327.808Z" fill="#3F3D56"/>
<path d="M403.744 327.808H406.144C406.345 327.808 406.509 327.645 406.509 327.443V326.295C406.509 326.093 406.345 325.93 406.144 325.93H403.744C403.542 325.93 403.379 326.093 403.379 326.295V327.443C403.379 327.645 403.542 327.808 403.744 327.808Z" fill="#3F3D56"/>
<path d="M397.484 327.808H399.884C400.086 327.808 400.249 327.645 400.249 327.443V326.295C400.249 326.093 400.086 325.93 399.884 325.93H397.484C397.282 325.93 397.119 326.093 397.119 326.295V327.443C397.119 327.645 397.282 327.808 397.484 327.808Z" fill="#3F3D56"/>
<path d="M391.223 327.808H393.623C393.825 327.808 393.988 327.645 393.988 327.443V326.295C393.988 326.093 393.825 325.93 393.623 325.93H391.223C391.022 325.93 390.858 326.093 390.858 326.295V327.443C390.858 327.645 391.022 327.808 391.223 327.808Z" fill="#3F3D56"/>
<path d="M384.963 327.808H387.364C387.565 327.808 387.729 327.645 387.729 327.443V326.295C387.729 326.093 387.565 325.93 387.364 325.93H384.963C384.762 325.93 384.598 326.093 384.598 326.295V327.443C384.598 327.645 384.762 327.808 384.963 327.808Z" fill="#3F3D56"/>
<path d="M378.702 327.808H381.103C381.304 327.808 381.468 327.645 381.468 327.443V326.295C381.468 326.093 381.304 325.93 381.103 325.93H378.702C378.501 325.93 378.338 326.093 378.338 326.295V327.443C378.338 327.645 378.501 327.808 378.702 327.808Z" fill="#3F3D56"/>
<path d="M372.443 327.808H374.843C375.045 327.808 375.208 327.645 375.208 327.443V326.295C375.208 326.093 375.045 325.93 374.843 325.93H372.443C372.241 325.93 372.078 326.093 372.078 326.295V327.443C372.078 327.645 372.241 327.808 372.443 327.808Z" fill="#3F3D56"/>
<path d="M414.386 331.564H438.698C438.899 331.564 439.062 331.401 439.062 331.2V330.051C439.062 329.85 438.899 329.686 438.698 329.686H414.386C414.185 329.686 414.022 329.85 414.022 330.051V331.2C414.022 331.401 414.185 331.564 414.386 331.564Z" fill="#3F3D56"/>
<path d="M388.629 268.261H386.504C385.859 268.261 385.337 268.783 385.337 269.427C385.337 270.072 385.859 270.594 386.504 270.594H388.629C389.273 270.594 389.795 270.072 389.795 269.427C389.795 268.783 389.273 268.261 388.629 268.261Z" fill="white"/>
<path d="M412.934 268.261H410.809C410.165 268.261 409.643 268.783 409.643 269.427C409.643 270.072 410.165 270.594 410.809 270.594H412.934C413.579 270.594 414.101 270.072 414.101 269.427C414.101 268.783 413.579 268.261 412.934 268.261Z" fill="white"/>
<path d="M419.82 268.261H417.695C417.051 268.261 416.528 268.783 416.528 269.427C416.528 270.072 417.051 270.594 417.695 270.594H419.82C420.464 270.594 420.987 270.072 420.987 269.427C420.987 268.783 420.464 268.261 419.82 268.261Z" fill="white"/>
<path d="M406.323 268.066H393.115C392.471 268.066 391.948 268.589 391.948 269.233C391.948 269.877 392.471 270.4 393.115 270.4H406.323C406.967 270.4 407.489 269.877 407.489 269.233C407.489 268.589 406.967 268.066 406.323 268.066Z" fill="white"/>
<path d="M438.729 268.066H425.521C424.877 268.066 424.354 268.589 424.354 269.233C424.354 269.877 424.877 270.4 425.521 270.4H438.729C439.373 270.4 439.896 269.877 439.896 269.233C439.896 268.589 439.373 268.066 438.729 268.066Z" fill="white"/>
<path d="M395.11 273.527H392.985C392.341 273.527 391.818 274.049 391.818 274.693C391.818 275.338 392.341 275.86 392.985 275.86H395.11C395.754 275.86 396.277 275.338 396.277 274.693C396.277 274.049 395.754 273.527 395.11 273.527Z" fill="white"/>
<path d="M419.415 273.527H417.29C416.645 273.527 416.123 274.049 416.123 274.693C416.123 275.338 416.645 275.86 417.29 275.86H419.415C420.059 275.86 420.581 275.338 420.581 274.693C420.581 274.049 420.059 273.527 419.415 273.527Z" fill="white"/>
<path d="M426.301 273.527H424.176C423.532 273.527 423.01 274.049 423.01 274.693C423.01 275.338 423.532 275.86 424.176 275.86H426.301C426.946 275.86 427.468 275.338 427.468 274.693C427.468 274.049 426.946 273.527 426.301 273.527Z" fill="white"/>
<path d="M412.804 273.333H399.596C398.952 273.333 398.43 273.855 398.43 274.499C398.43 275.143 398.952 275.666 399.596 275.666H412.804C413.449 275.666 413.971 275.143 413.971 274.499C413.971 273.855 413.449 273.333 412.804 273.333Z" fill="white"/>
<path d="M445.211 273.333H432.003C431.358 273.333 430.836 273.855 430.836 274.499C430.836 275.143 431.358 275.666 432.003 275.666H445.211C445.855 275.666 446.377 275.143 446.377 274.499C446.377 273.855 445.855 273.333 445.211 273.333Z" fill="white"/>
<path d="M401.592 278.793H399.466C398.822 278.793 398.3 279.315 398.3 279.96C398.3 280.604 398.822 281.126 399.466 281.126H401.592C402.236 281.126 402.758 280.604 402.758 279.96C402.758 279.315 402.236 278.793 401.592 278.793Z" fill="white"/>
<path d="M425.896 278.793H423.771C423.127 278.793 422.604 279.315 422.604 279.96C422.604 280.604 423.127 281.126 423.771 281.126H425.896C426.54 281.126 427.063 280.604 427.063 279.96C427.063 279.315 426.54 278.793 425.896 278.793Z" fill="white"/>
<path d="M432.783 278.793H430.658C430.014 278.793 429.491 279.315 429.491 279.96C429.491 280.604 430.014 281.126 430.658 281.126H432.783C433.427 281.126 433.95 280.604 433.95 279.96C433.95 279.315 433.427 278.793 432.783 278.793Z" fill="white"/>
<path d="M419.286 278.599H406.078C405.433 278.599 404.911 279.121 404.911 279.765C404.911 280.41 405.433 280.932 406.078 280.932H419.286C419.93 280.932 420.452 280.41 420.452 279.765C420.452 279.121 419.93 278.599 419.286 278.599Z" fill="white"/>
<path d="M451.692 278.599H438.484C437.84 278.599 437.317 279.121 437.317 279.765C437.317 280.41 437.84 280.932 438.484 280.932H451.692C452.336 280.932 452.859 280.41 452.859 279.765C452.859 279.121 452.336 278.599 451.692 278.599Z" fill="white"/>
<path d="M408.073 284.059H405.948C405.304 284.059 404.781 284.581 404.781 285.226C404.781 285.87 405.304 286.392 405.948 286.392H408.073C408.717 286.392 409.24 285.87 409.24 285.226C409.24 284.581 408.717 284.059 408.073 284.059Z" fill="white"/>
<path d="M432.378 284.059H430.253C429.608 284.059 429.086 284.581 429.086 285.226C429.086 285.87 429.608 286.392 430.253 286.392H432.378C433.022 286.392 433.544 285.87 433.544 285.226C433.544 284.581 433.022 284.059 432.378 284.059Z" fill="white"/>
<path d="M439.264 284.059H437.139C436.495 284.059 435.973 284.581 435.973 285.226C435.973 285.87 436.495 286.392 437.139 286.392H439.264C439.909 286.392 440.431 285.87 440.431 285.226C440.431 284.581 439.909 284.059 439.264 284.059Z" fill="white"/>
<path d="M425.767 283.865H412.559C411.915 283.865 411.393 284.387 411.393 285.031C411.393 285.676 411.915 286.198 412.559 286.198H425.767C426.411 286.198 426.934 285.676 426.934 285.031C426.934 284.387 426.411 283.865 425.767 283.865Z" fill="white"/>
<path d="M412.934 304.999H410.809C410.165 304.999 409.643 305.521 409.643 306.166C409.643 306.81 410.165 307.332 410.809 307.332H412.934C413.579 307.332 414.101 306.81 414.101 306.166C414.101 305.521 413.579 304.999 412.934 304.999Z" fill="white"/>
<path d="M419.82 304.999H417.695C417.051 304.999 416.528 305.521 416.528 306.166C416.528 306.81 417.051 307.332 417.695 307.332H419.82C420.464 307.332 420.987 306.81 420.987 306.166C420.987 305.521 420.464 304.999 419.82 304.999Z" fill="white"/>
<path d="M438.729 305.193H425.521C424.877 305.193 424.354 305.716 424.354 306.36C424.354 307.004 424.877 307.527 425.521 307.527H438.729C439.373 307.527 439.896 307.004 439.896 306.36C439.896 305.716 439.373 305.193 438.729 305.193Z" fill="white"/>
<path d="M388.629 304.999H386.504C385.859 304.999 385.337 305.521 385.337 306.166C385.337 306.81 385.859 307.332 386.504 307.332H388.629C389.273 307.332 389.795 306.81 389.795 306.166C389.795 305.521 389.273 304.999 388.629 304.999Z" fill="white"/>
<path d="M406.323 305.193H393.115C392.471 305.193 391.948 305.716 391.948 306.36C391.948 307.004 392.471 307.527 393.115 307.527H406.323C406.967 307.527 407.489 307.004 407.489 306.36C407.489 305.716 406.967 305.193 406.323 305.193Z" fill="white"/>
<path d="M395.11 299.733H392.985C392.341 299.733 391.818 300.255 391.818 300.9C391.818 301.544 392.341 302.066 392.985 302.066H395.11C395.754 302.066 396.277 301.544 396.277 300.9C396.277 300.255 395.754 299.733 395.11 299.733Z" fill="white"/>
<path d="M419.415 299.733H417.29C416.645 299.733 416.123 300.255 416.123 300.9C416.123 301.544 416.645 302.066 417.29 302.066H419.415C420.059 302.066 420.581 301.544 420.581 300.9C420.581 300.255 420.059 299.733 419.415 299.733Z" fill="white"/>
<path d="M426.301 299.733H424.176C423.532 299.733 423.01 300.255 423.01 300.9C423.01 301.544 423.532 302.066 424.176 302.066H426.301C426.946 302.066 427.468 301.544 427.468 300.9C427.468 300.255 426.946 299.733 426.301 299.733Z" fill="white"/>
<path d="M412.804 299.928H399.596C398.952 299.928 398.43 300.45 398.43 301.094C398.43 301.739 398.952 302.261 399.596 302.261H412.804C413.449 302.261 413.971 301.739 413.971 301.094C413.971 300.45 413.449 299.928 412.804 299.928Z" fill="white"/>
<path d="M401.592 294.467H399.466C398.822 294.467 398.3 294.989 398.3 295.633C398.3 296.278 398.822 296.8 399.466 296.8H401.592C402.236 296.8 402.758 296.278 402.758 295.633C402.758 294.989 402.236 294.467 401.592 294.467Z" fill="white"/>
<path d="M425.896 294.467H423.771C423.127 294.467 422.604 294.989 422.604 295.633C422.604 296.278 423.127 296.8 423.771 296.8H425.896C426.54 296.8 427.063 296.278 427.063 295.633C427.063 294.989 426.54 294.467 425.896 294.467Z" fill="white"/>
<path d="M432.783 294.467H430.658C430.014 294.467 429.491 294.989 429.491 295.633C429.491 296.278 430.014 296.8 430.658 296.8H432.783C433.427 296.8 433.95 296.278 433.95 295.633C433.95 294.989 433.427 294.467 432.783 294.467Z" fill="white"/>
<path d="M419.286 294.662H406.078C405.433 294.662 404.911 295.184 404.911 295.828C404.911 296.473 405.433 296.995 406.078 296.995H419.286C419.93 296.995 420.452 296.473 420.452 295.828C420.452 295.184 419.93 294.662 419.286 294.662Z" fill="white"/>
<path d="M408.073 289.201H405.948C405.304 289.201 404.781 289.723 404.781 290.367C404.781 291.012 405.304 291.534 405.948 291.534H408.073C408.717 291.534 409.24 291.012 409.24 290.367C409.24 289.723 408.717 289.201 408.073 289.201Z" fill="white"/>
<path d="M432.378 289.201H430.253C429.608 289.201 429.086 289.723 429.086 290.367C429.086 291.012 429.608 291.534 430.253 291.534H432.378C433.022 291.534 433.544 291.012 433.544 290.367C433.544 289.723 433.022 289.201 432.378 289.201Z" fill="white"/>
<path d="M439.264 289.201H437.139C436.495 289.201 435.973 289.723 435.973 290.367C435.973 291.012 436.495 291.534 437.139 291.534H439.264C439.909 291.534 440.431 291.012 440.431 290.367C440.431 289.723 439.909 289.201 439.264 289.201Z" fill="white"/>
<path d="M425.767 289.396H412.559C411.915 289.396 411.393 289.918 411.393 290.562C411.393 291.206 411.915 291.729 412.559 291.729H425.767C426.411 291.729 426.934 291.206 426.934 290.562C426.934 289.918 426.411 289.396 425.767 289.396Z" fill="white"/>
<path d="M377.331 366.715L367.354 350.946L398.668 325.984L411.593 311.664C413.273 309.804 415.411 308.417 417.794 307.642C420.177 306.867 422.722 306.73 425.174 307.247C427.627 307.763 429.9 308.914 431.769 310.585C433.637 312.256 435.034 314.387 435.82 316.767C436.985 320.293 436.734 324.134 435.121 327.479C433.508 330.824 430.658 333.412 427.173 334.696L406.735 342.225L377.331 366.715Z" fill="#FFB6B6"/>
<path d="M143.252 252.376V329.02H196.946V252.376C196.947 251.825 196.771 251.288 196.444 250.844C196.118 250.4 195.657 250.073 195.13 249.91C194.882 249.828 194.622 249.787 194.361 249.79H145.845C145.505 249.79 145.168 249.856 144.854 249.986C144.539 250.115 144.253 250.305 144.013 250.546C143.772 250.786 143.581 251.071 143.45 251.385C143.32 251.699 143.252 252.036 143.252 252.376ZM164.207 278.711C164.221 277.2 164.831 275.756 165.904 274.692C166.977 273.629 168.427 273.032 169.938 273.032C171.45 273.032 172.899 273.629 173.973 274.692C175.046 275.756 175.656 277.2 175.67 278.711V287.604C175.663 289.119 175.055 290.57 173.981 291.638C172.907 292.707 171.454 293.307 169.938 293.307C168.423 293.307 166.97 292.707 165.896 291.638C164.822 290.57 164.214 289.119 164.207 287.604V278.711Z" fill="#2F2E41"/>
<path d="M143.088 326.569V333.96C143.089 334.343 143.241 334.71 143.511 334.981C143.781 335.252 144.147 335.406 144.53 335.41H195.669C196.052 335.408 196.419 335.254 196.689 334.982C196.959 334.711 197.111 334.343 197.111 333.96V326.569H143.088Z" fill="#3F3D56"/>
<path d="M58.7832 136.901V276.843C58.7846 278.626 59.4937 280.336 60.7547 281.597C62.0157 282.858 63.7256 283.567 65.509 283.569H272.888C274.671 283.567 276.381 282.858 277.642 281.597C278.903 280.336 279.613 278.626 279.614 276.843V136.901C279.61 135.119 278.899 133.412 277.639 132.153C276.378 130.893 274.67 130.185 272.888 130.183H65.509C63.7272 130.185 62.0189 130.893 60.7583 132.153C59.4977 133.412 58.7875 135.119 58.7832 136.901Z" fill="#3F3D56"/>
<path d="M63.6484 138.642V275.116C63.6501 276.069 64.0293 276.983 64.7031 277.656C65.3768 278.33 66.2902 278.709 67.243 278.711H271.162C272.115 278.709 273.028 278.33 273.702 277.656C274.376 276.983 274.755 276.069 274.757 275.116V138.642C274.757 137.688 274.378 136.773 273.704 136.098C273.03 135.423 272.116 135.042 271.162 135.04H67.243C66.289 135.042 65.3748 135.423 64.7009 136.098C64.027 136.773 63.6485 137.688 63.6484 138.642Z" fill="white"/>
<path d="M101.492 334.909C101.7 335.169 101.964 335.379 102.264 335.523C102.564 335.666 102.893 335.74 103.226 335.738H224.545C224.876 335.738 225.204 335.664 225.503 335.521C225.803 335.378 226.067 335.17 226.276 334.912C226.485 334.655 226.634 334.353 226.712 334.031C226.79 333.709 226.795 333.373 226.727 333.048L224.843 324.103C224.765 323.738 224.597 323.398 224.355 323.115C224.112 322.832 223.802 322.614 223.453 322.481C223.201 322.382 222.932 322.331 222.661 322.332H105.102C104.831 322.331 104.562 322.382 104.31 322.481C103.961 322.614 103.651 322.832 103.408 323.115C103.166 323.398 102.998 323.738 102.92 324.103L101.036 333.048C100.969 333.373 100.975 333.708 101.054 334.03C101.133 334.352 101.283 334.652 101.492 334.909Z" fill="#2F2E41"/>
<path d="M264.544 153.84H73.7382C73.5399 153.836 73.3512 153.754 73.2125 153.612C73.0737 153.47 72.9961 153.28 72.9961 153.082C72.9961 152.883 73.0737 152.693 73.2125 152.551C73.3512 152.409 73.5399 152.327 73.7382 152.323H264.544C264.743 152.327 264.931 152.409 265.07 152.551C265.209 152.693 265.287 152.883 265.287 153.082C265.287 153.28 265.209 153.47 265.07 153.612C264.931 153.754 264.743 153.836 264.544 153.84Z" fill="#3F3D56"/>
<path d="M86.7261 148.449C89.182 148.449 91.1729 146.413 91.1729 143.903C91.1729 141.392 89.182 139.357 86.7261 139.357C84.2702 139.357 82.2793 141.392 82.2793 143.903C82.2793 146.413 84.2702 148.449 86.7261 148.449Z" fill="#3F3D56"/>
<path d="M102.088 148.449C104.544 148.449 106.535 146.413 106.535 143.903C106.535 141.392 104.544 139.357 102.088 139.357C99.6325 139.357 97.6416 141.392 97.6416 143.903C97.6416 146.413 99.6325 148.449 102.088 148.449Z" fill="#3F3D56"/>
<path d="M117.45 148.449C119.906 148.449 121.897 146.413 121.897 143.903C121.897 141.392 119.906 139.357 117.45 139.357C114.994 139.357 113.003 141.392 113.003 143.903C113.003 146.413 114.994 148.449 117.45 148.449Z" fill="#3F3D56"/>
<path d="M255.294 140.481H244.383C244.167 140.486 243.962 140.575 243.811 140.729C243.661 140.884 243.576 141.091 243.576 141.307C243.576 141.522 243.661 141.73 243.811 141.884C243.962 142.038 244.167 142.127 244.383 142.133H255.294C255.511 142.129 255.718 142.041 255.87 141.887C256.023 141.732 256.108 141.524 256.108 141.307C256.108 141.09 256.023 140.881 255.87 140.727C255.718 140.572 255.511 140.484 255.294 140.481Z" fill="#3F3D56"/>
<path d="M255.294 143.582H244.383C244.167 143.587 243.962 143.676 243.811 143.83C243.66 143.985 243.575 144.192 243.575 144.408C243.575 144.624 243.66 144.831 243.811 144.986C243.962 145.14 244.167 145.229 244.383 145.234H255.294C255.511 145.231 255.718 145.143 255.871 144.988C256.024 144.834 256.11 144.625 256.11 144.408C256.11 144.191 256.024 143.982 255.871 143.828C255.718 143.673 255.511 143.585 255.294 143.582Z" fill="#3F3D56"/>
<path d="M255.294 146.684H244.383C244.167 146.689 243.962 146.778 243.811 146.932C243.661 147.086 243.576 147.294 243.576 147.509C243.576 147.725 243.661 147.932 243.811 148.087C243.962 148.241 244.167 148.33 244.383 148.335H255.294C255.511 148.332 255.718 148.244 255.87 148.089C256.023 147.935 256.108 147.726 256.108 147.509C256.108 147.292 256.023 147.084 255.87 146.93C255.718 146.775 255.511 146.687 255.294 146.684Z" fill="#3F3D56"/>
<path d="M518.333 329.813C518.662 330.771 519.287 331.601 520.117 332.183C520.947 332.764 521.94 333.068 522.953 333.049L542.751 332.54C543.772 332.52 544.759 332.17 545.565 331.543C546.37 330.916 546.951 330.045 547.221 329.06L550.022 299.102C551.016 299.552 552.098 299.775 553.189 299.753C554.137 299.729 555.071 299.519 555.938 299.134C556.804 298.749 557.587 298.198 558.24 297.511C558.893 296.824 559.405 296.015 559.746 295.13C560.087 294.245 560.25 293.302 560.226 292.354C560.202 291.406 559.992 290.472 559.607 289.606C559.222 288.739 558.671 287.957 557.984 287.303C557.297 286.65 556.488 286.138 555.603 285.797C554.718 285.457 553.775 285.293 552.827 285.317C552.391 285.316 551.956 285.361 551.529 285.452C551.066 284.95 550.502 284.551 549.875 284.281C549.247 284.01 548.57 283.874 547.887 283.881L517.434 284.667C517.181 284.676 516.93 284.708 516.683 284.76C516.015 284.885 515.381 285.151 514.825 285.541C514.269 285.931 513.802 286.435 513.457 287.02C513.112 287.605 512.896 288.258 512.824 288.933C512.753 289.609 512.826 290.292 513.041 290.937L518.333 329.813ZM550.597 297.068L552.59 289.929C552.817 289.104 552.822 288.235 552.606 287.407C552.702 287.407 552.788 287.361 552.884 287.361C554.251 287.333 555.574 287.848 556.561 288.793C557.549 289.738 558.122 291.036 558.154 292.403C558.186 293.77 557.675 295.094 556.732 296.084C555.79 297.075 554.493 297.651 553.126 297.687C552.243 297.714 551.368 297.5 550.597 297.068Z" fill="#2F2E41"/>
<path d="M516.683 284.76C517.331 288.47 524.626 291.078 533.397 290.625C541.462 290.253 548.057 287.421 549.265 284.064C548.818 283.932 548.353 283.87 547.887 283.881L517.434 284.667C517.181 284.676 516.93 284.707 516.683 284.76Z" fill="#3F3D56"/>
<path d="M535.004 313.351C535.044 313.341 535.082 313.324 535.117 313.301L539.416 310.487C539.468 310.453 539.511 310.407 539.54 310.352C539.57 310.298 539.586 310.237 539.586 310.175C539.586 310.113 539.57 310.051 539.541 309.997C539.511 309.942 539.468 309.896 539.416 309.862L534.948 306.935C534.907 306.908 534.861 306.889 534.812 306.88C534.764 306.871 534.715 306.871 534.666 306.881C534.618 306.891 534.572 306.91 534.532 306.938C534.491 306.965 534.456 307.001 534.429 307.042C534.402 307.083 534.384 307.129 534.375 307.177C534.366 307.226 534.366 307.275 534.376 307.323C534.386 307.371 534.406 307.417 534.434 307.458C534.461 307.498 534.497 307.533 534.538 307.56L538.53 310.174L534.708 312.676C534.634 312.724 534.579 312.797 534.554 312.882C534.529 312.967 534.535 313.058 534.57 313.139C534.606 313.22 534.669 313.285 534.748 313.324C534.828 313.363 534.918 313.372 535.004 313.351Z" fill="#A688E2"/>
<path d="M528.213 313.664C528.286 313.645 528.351 313.606 528.4 313.551C528.45 313.495 528.482 313.426 528.492 313.352C528.502 313.279 528.49 313.204 528.457 313.137C528.424 313.07 528.372 313.014 528.308 312.977L524.345 310.705L528.175 307.86C528.214 307.831 528.248 307.794 528.273 307.752C528.298 307.71 528.315 307.663 528.322 307.615C528.329 307.566 528.326 307.517 528.314 307.469C528.302 307.422 528.281 307.377 528.252 307.338C528.223 307.298 528.186 307.265 528.144 307.24C528.102 307.215 528.055 307.198 528.007 307.191C527.958 307.184 527.909 307.186 527.861 307.198C527.814 307.21 527.769 307.231 527.73 307.261L523.441 310.446C523.391 310.483 523.351 310.532 523.325 310.588C523.299 310.644 523.287 310.706 523.291 310.768C523.294 310.83 523.313 310.89 523.346 310.943C523.379 310.995 523.424 311.039 523.478 311.07L527.936 313.626C528.02 313.674 528.119 313.688 528.213 313.664Z" fill="#A688E2"/>
<path d="M534.577 315.817C534.613 315.808 534.647 315.793 534.679 315.774C534.721 315.748 534.757 315.715 534.786 315.675C534.815 315.635 534.836 315.59 534.848 315.543C534.86 315.495 534.862 315.446 534.854 315.397C534.847 315.349 534.83 315.302 534.804 315.26L528.709 305.24C528.658 305.155 528.575 305.095 528.478 305.072C528.382 305.048 528.281 305.064 528.196 305.116C528.111 305.167 528.051 305.25 528.027 305.346C528.004 305.443 528.02 305.544 528.071 305.629L534.166 315.649C534.207 315.717 534.269 315.77 534.343 315.8C534.417 315.831 534.499 315.836 534.577 315.817Z" fill="#A688E2"/>
<path d="M191.939 195.092H158.915C157.568 195.092 156.476 196.184 156.476 197.531V200.758C156.476 202.105 157.568 203.197 158.915 203.197H191.939C193.286 203.197 194.379 202.105 194.379 200.758V197.531C194.379 196.184 193.286 195.092 191.939 195.092Z" fill="#A688E2"/>
<path d="M211.189 211.302H139.665C138.318 211.302 137.226 212.394 137.226 213.741V216.968C137.226 218.315 138.318 219.407 139.665 219.407H211.189C212.536 219.407 213.628 218.315 213.628 216.968V213.741C213.628 212.394 212.536 211.302 211.189 211.302Z" fill="#E6E6E6"/>
<path d="M211.189 227.512H139.665C138.318 227.512 137.226 228.604 137.226 229.952V233.178C137.226 234.525 138.318 235.617 139.665 235.617H211.189C212.536 235.617 213.628 234.525 213.628 233.178V229.952C213.628 228.604 212.536 227.512 211.189 227.512Z" fill="#E6E6E6"/>
<path d="M217.252 281.794L217.414 282.305L217.422 282.322L222.299 297.147L227.908 314.232L238.462 346.337L238.565 351.324V351.341L239.349 391.46L237.175 396.899L239.622 405.817C239.622 405.817 238.496 392.337 232.461 400.078C229.042 404.477 225.044 408.978 221.762 413.198C226.544 415.133 231.404 416.884 236.34 418.45C237.405 418.791 238.479 419.115 239.554 419.439C239.784 419.507 240.014 419.575 240.244 419.643C256.606 424.482 273.522 427.201 290.576 427.734C291.463 427.759 292.332 427.776 293.176 427.793C293.475 427.802 293.765 427.81 294.054 427.81C295.009 427.819 295.956 427.827 296.91 427.827C298.837 427.827 300.755 427.799 302.665 427.742C316.799 427.344 330.851 425.443 344.583 422.073C344.489 416.404 344.233 409.78 343.867 402.704C343.696 399.234 339.868 395.475 339.638 391.843C339.476 389.115 342.912 386.549 342.733 383.778C341.573 366.719 340.124 373.268 339.05 361.188C338.939 360.003 338.837 358.869 338.743 357.786C338.052 350.028 337.575 345.178 337.575 345.178L342.162 316.269L349.365 270.882L348.811 269.969L348.189 269.662L310.192 250.856L308.129 245.571C307.528 244.048 306.485 242.74 305.135 241.814C303.784 240.889 302.188 240.389 300.551 240.379L275.521 240.276C274.222 240.271 272.94 240.575 271.782 241.163C270.624 241.752 269.624 242.608 268.863 243.661L262.085 253.047L217.252 281.794Z" fill="#3F3D56"/>
<path d="M244.234 339.193L238.565 351.325L234.695 359.611L228.037 394.47L224.703 398.008L221.847 385.483L191.957 392.12C190.976 386.673 191.694 392.305 191.089 386.328C191.259 386.158 191.438 385.987 191.617 385.817C192.095 385.374 192.496 384.956 192.487 384.555C192.146 363.942 193.169 328.861 201.711 307.608C203.049 304.138 204.813 300.847 206.963 297.812C207.133 297.582 207.295 297.352 207.457 297.122C211.396 291.606 213.885 286.176 217.414 282.314V282.305C217.436 282.288 217.456 282.268 217.474 282.246C217.487 282.239 217.498 282.231 217.508 282.22L241.753 269.364L242.794 298.588L243.535 319.594L244.234 339.193Z" fill="#3F3D56"/>
<path d="M331.658 342.639L338.74 357.791L341.211 363.067L347.868 397.923L351.19 401.452L354.052 388.931L355.397 388.655L379.654 383.631L386.724 406.085C388.318 403.43 388.945 400.306 388.501 397.242C388.057 394.177 386.568 391.36 384.287 389.267C383.804 388.83 383.402 388.404 383.413 388.002C383.816 363.757 382.333 319.486 368.94 301.265C364.686 295.482 362.134 289.723 358.421 285.699C358.409 285.688 358.409 285.676 358.398 285.676L349.362 270.881L348.81 269.972L348.189 269.662L331.658 342.639Z" fill="#3F3D56"/>
<path d="M288.759 233.154C307.149 233.154 322.058 218.245 322.058 199.855C322.058 181.464 307.149 166.556 288.759 166.556C270.368 166.556 255.46 181.464 255.46 199.855C255.46 218.245 270.368 233.154 288.759 233.154Z" fill="#FFB6B6"/>
<path d="M333.766 176.595C333.508 176.32 333.197 176.099 332.852 175.946C332.506 175.793 332.134 175.712 331.756 175.706L332.257 174.316C332.42 173.878 332.464 173.405 332.385 172.944C332.305 172.484 332.104 172.053 331.803 171.696C331.502 171.338 331.111 171.067 330.671 170.911C330.231 170.754 329.757 170.717 329.297 170.804L327.474 171.155L327.646 169.937C327.712 169.483 327.658 169.02 327.491 168.593C327.324 168.167 327.048 167.791 326.692 167.503C326.335 167.215 325.91 167.024 325.457 166.951C325.005 166.877 324.541 166.922 324.111 167.082C323.72 167.236 323.3 167.3 322.881 167.271C322.462 167.241 322.055 167.118 321.69 166.91C321.323 166.709 321.005 166.43 320.757 166.093C320.509 165.757 320.338 165.37 320.255 164.96L319.62 161.896L319.552 161.731C316.459 156.575 310.51 152.823 303.231 151.448C296.752 150.215 290.108 150.843 283.704 151.433C281.163 151.673 278.293 151.942 275.902 153.406C273.869 154.662 272.15 157.173 272.502 159.706C266.187 157.771 259.416 161.634 256.061 166.507C252.085 172.306 251.435 179.57 251.33 185.249C251.046 198.686 253.819 209.679 259.551 217.929C259.969 218.527 260.074 219.775 260.903 220.194L260.732 219.917C261.658 220.38 262.6 221.128 262.249 221.927C261.24 224.229 267.943 229.318 272.666 231C281.283 234.071 292.739 233.81 300.795 232.704L301.079 230.798C303.986 230.402 306.034 229.647 306.609 228.466C307.625 227.599 308.492 226.822 309.247 226.105L309.255 226.097C309.269 226.082 309.299 226.06 309.314 226.045C312.954 222.555 313.798 220.567 314.179 217.541C314.545 214.574 313.895 211.562 313.23 208.849C327.235 211.017 307.715 193.933 320.763 190.63C320.913 190.584 321.065 190.546 321.219 190.518C321.6 190.428 321.981 190.338 322.347 190.234C324.113 189.755 325.803 189.033 327.369 188.089C331.016 185.87 332.219 182.925 334.103 179.607C334.374 179.135 334.488 178.588 334.428 178.046C334.367 177.505 334.136 176.996 333.766 176.595Z" fill="#2F2E41"/>
<path d="M406.531 345.009C406.524 346.317 406.509 348.148 406.449 350.412C406.442 350.726 406.434 351.048 406.427 351.377C406.33 355.539 406.233 359.029 406.076 362.908C406.068 363.177 406.061 363.438 406.046 363.707C405.836 369.118 405.508 375.418 404.94 385.394C403.886 403.823 402.048 387.928 400.202 394.392C400.112 394.713 400.015 395.094 399.925 395.543C399.646 397.17 399.174 398.757 398.52 400.273C397.541 400.856 396.532 401.417 395.539 401.977C392.706 403.554 389.829 405.071 386.93 406.513C385.3 407.32 383.664 408.112 382.02 408.875C381.758 408.994 381.504 409.114 381.25 409.226C372.831 413.12 364.154 416.431 355.281 419.135C353.547 419.658 351.821 420.167 350.072 420.637C348.249 421.146 346.425 421.624 344.579 422.072C330.848 425.443 316.796 427.345 302.663 427.744C300.757 427.804 298.836 427.827 296.908 427.827C295.952 427.827 295.01 427.819 294.054 427.812C293.762 427.812 293.471 427.804 293.179 427.797C292.335 427.774 291.46 427.759 290.579 427.737C273.524 427.205 256.609 424.485 240.247 419.643L239.552 419.442C238.476 419.113 237.407 418.792 236.339 418.448C231.406 416.886 226.546 415.137 221.759 413.202C218.104 411.729 214.492 410.15 210.923 408.464C210.89 408.455 210.86 408.44 210.833 408.419C210.086 408.075 209.331 407.716 208.584 407.35C208.486 407.298 208.382 407.246 208.277 407.193C205.49 405.833 202.732 404.408 200.004 402.919C197.71 397.65 194.482 396.641 192.479 392.008C191.896 390.631 191.475 389.192 191.223 387.718C191.223 387.703 191.216 387.688 191.216 387.666C191.425 390.446 190.327 382.734 191.209 387.636C191.201 387.546 191.194 387.449 191.186 387.337C191.164 387.068 191.134 386.739 191.089 386.328C188.526 361.301 188.69 332.679 187.577 309.094C187.502 307.569 187.425 306.109 187.345 304.714C187.323 304.251 187.293 303.795 187.263 303.347C187.315 303.212 187.375 303.07 187.442 302.936C187.456 302.897 187.474 302.86 187.494 302.824C187.516 302.777 187.541 302.732 187.569 302.689C187.584 302.667 187.606 302.637 187.621 302.614C187.632 302.589 187.645 302.564 187.659 302.54C187.726 302.435 187.801 302.323 187.883 302.218C187.92 302.174 187.95 302.136 187.988 302.099C188.013 302.061 188.043 302.026 188.077 301.994C188.1 301.958 188.128 301.926 188.159 301.897C188.189 301.867 188.219 301.83 188.257 301.792C188.273 301.769 188.293 301.749 188.316 301.733C188.376 301.665 188.441 301.602 188.511 301.546C188.777 301.3 189.062 301.076 189.363 300.873C189.467 300.806 189.579 300.739 189.684 300.664C190.437 300.213 191.23 299.833 192.053 299.528C192.337 299.423 192.621 299.326 192.927 299.222C193.039 299.192 193.144 299.154 193.256 299.117C193.421 299.065 193.585 299.012 193.757 298.975C194.609 298.721 195.528 298.504 196.522 298.302C196.641 298.28 196.768 298.258 196.896 298.228C197.075 298.19 197.262 298.16 197.449 298.131C197.703 298.086 197.964 298.041 198.226 297.996C200.445 297.645 202.964 297.383 205.744 297.211C206.005 297.196 206.267 297.182 206.528 297.167C206.835 297.152 207.141 297.137 207.455 297.122C207.717 297.107 207.986 297.099 208.255 297.092C208.516 297.077 208.785 297.069 209.062 297.062C209.817 297.04 210.594 297.017 211.386 297.002C213.643 296.957 216.019 296.972 218.515 297.025C219.674 297.054 220.854 297.084 222.065 297.137C222.147 297.137 222.222 297.144 222.297 297.144C223.35 297.181 224.412 297.226 225.503 297.286C226.265 297.323 227.035 297.361 227.804 297.406C228.529 297.451 229.262 297.495 230.001 297.548C230.577 297.578 231.152 297.622 231.735 297.66C232.228 297.697 232.722 297.735 233.215 297.764L233.887 297.809C234.254 297.839 234.62 297.862 234.993 297.899C235.816 297.966 236.638 298.033 237.475 298.101C238.304 298.175 239.149 298.25 239.993 298.325C240.837 298.4 241.689 298.482 242.541 298.564C242.631 298.572 242.713 298.579 242.795 298.586C243.573 298.669 244.35 298.743 245.135 298.826C245.314 298.841 245.501 298.855 245.68 298.878C246.428 298.953 247.191 299.041 247.946 299.121C248.178 299.146 248.408 299.17 248.64 299.196C249.232 299.26 249.815 299.316 250.41 299.386C251.195 299.476 251.995 299.558 252.772 299.663C253.377 299.73 253.983 299.797 254.588 299.872C255.537 299.984 256.501 300.103 257.465 300.231C257.831 300.275 258.197 300.32 258.564 300.373C261.314 300.716 264.094 301.097 266.919 301.493C271.201 302.099 275.55 302.756 279.929 303.466C284.316 304.176 288.728 304.926 293.164 305.716C294.285 305.918 295.406 306.119 296.535 306.329C297.043 306.426 297.551 306.523 298.059 306.62C298.926 306.777 299.793 306.941 300.66 307.106C301.527 307.27 302.394 307.435 303.26 307.606C304.292 307.808 305.33 308.01 306.362 308.212C313.155 309.557 319.91 310.992 326.502 312.494C327.585 312.74 328.669 312.995 329.745 313.241C331.897 313.742 334.03 314.25 336.142 314.766C336.725 314.9 337.3 315.042 337.876 315.184C339.311 315.543 340.746 315.902 342.158 316.268L342.405 316.335C343.443 316.589 344.46 316.851 345.476 317.12C347.875 317.747 350.234 318.383 352.553 319.025C354.093 319.451 355.615 319.882 357.119 320.318C359.369 320.968 361.573 321.626 363.718 322.291C364.248 322.456 364.779 322.62 365.302 322.777C366.872 323.263 368.418 323.756 369.921 324.249C371.116 324.638 372.282 325.034 373.433 325.43C374.584 325.826 375.712 326.222 376.818 326.618C377.528 326.872 378.231 327.141 378.933 327.395C379.942 327.769 380.936 328.143 381.908 328.516C382.206 328.628 382.498 328.748 382.789 328.86C382.976 328.942 383.155 329.009 383.335 329.084C383.686 329.226 384.045 329.361 384.389 329.503C384.74 329.637 385.084 329.779 385.427 329.929C385.764 330.063 386.107 330.205 386.436 330.347C386.772 330.482 387.101 330.624 387.43 330.773C387.707 330.885 387.976 331.005 388.237 331.124C388.768 331.356 389.298 331.588 389.814 331.827C390.068 331.946 390.322 332.058 390.576 332.178L391.159 332.447C391.241 332.492 391.324 332.529 391.406 332.567C391.593 332.656 391.787 332.754 391.974 332.843C392.407 333.045 392.833 333.262 393.252 333.463C393.812 333.747 394.358 334.031 394.881 334.308C395.411 334.592 395.927 334.876 396.42 335.152C396.502 335.197 396.577 335.242 396.659 335.287C396.772 335.347 396.884 335.414 396.996 335.474C397.377 335.69 397.743 335.915 398.109 336.131C398.827 336.572 399.507 337.006 400.142 337.439C400.284 337.536 400.418 337.633 400.56 337.723C401.031 338.059 401.48 338.388 401.898 338.724C401.898 338.732 401.898 338.732 401.906 338.732C402.048 338.837 402.182 338.949 402.317 339.053C402.429 339.158 402.548 339.248 402.66 339.352C403.049 339.689 403.408 340.01 403.736 340.339C403.847 340.44 403.951 340.547 404.05 340.66C404.094 340.696 404.134 340.736 404.17 340.78C404.319 340.929 404.454 341.078 404.581 341.228C404.601 341.249 404.618 341.271 404.633 341.295C404.813 341.504 404.977 341.714 405.134 341.923C405.209 342.028 405.291 342.132 405.358 342.237C405.448 342.364 405.537 342.498 405.612 342.625C405.679 342.73 405.739 342.842 405.799 342.947C405.958 343.216 406.093 343.499 406.203 343.791C406.287 343.99 406.354 344.195 406.404 344.404C406.461 344.603 406.503 344.805 406.531 345.009Z" fill="#2F2E41"/>
<path opacity="0.2" d="M406.532 345.01C406.525 346.317 406.51 348.148 406.45 350.413C406.442 350.726 406.428 351.048 406.42 351.377C406.345 354.553 406.233 358.476 406.076 362.908C406.069 363.177 406.061 363.438 406.046 363.707C405.837 369.118 405.508 375.418 404.94 385.394C403.887 403.823 402.048 387.928 400.202 394.392C395.076 391.238 389.456 387.935 383.448 384.542C382.364 383.93 381.271 383.314 380.167 382.697C368.15 375.993 354.728 368.968 340.716 362.011C340.163 361.734 339.603 361.458 339.05 361.189C306.953 345.323 271.919 329.891 243.536 319.593C238.058 317.606 232.827 315.812 227.91 314.235C217.552 310.925 208.599 308.608 201.709 307.607C194.535 306.56 189.58 306.934 187.577 309.094C187.502 307.569 187.425 306.109 187.346 304.714C187.316 304.251 187.286 303.795 187.256 303.347C187.302 303.224 187.362 303.106 187.42 302.988C187.428 302.971 187.434 302.953 187.443 302.936C187.457 302.897 187.475 302.86 187.495 302.824C187.517 302.777 187.542 302.732 187.57 302.689C187.594 302.636 187.624 302.586 187.659 302.54C187.727 302.435 187.801 302.323 187.884 302.218C187.944 302.14 188.009 302.065 188.078 301.994C188.101 301.958 188.128 301.926 188.16 301.897C188.19 301.867 188.22 301.83 188.257 301.792C188.273 301.769 188.294 301.749 188.317 301.733C188.376 301.665 188.441 301.602 188.511 301.546C188.778 301.301 189.063 301.076 189.363 300.873C189.468 300.806 189.58 300.739 189.685 300.664C190.438 300.213 191.231 299.833 192.054 299.528C192.338 299.424 192.622 299.326 192.928 299.222C193.04 299.192 193.145 299.154 193.257 299.117C193.421 299.065 193.586 299.012 193.757 298.975C194.609 298.721 195.529 298.504 196.523 298.303C196.821 298.243 197.135 298.183 197.449 298.131C197.703 298.086 197.965 298.041 198.226 297.996C200.446 297.645 202.964 297.383 205.744 297.211C206.006 297.196 206.267 297.182 206.529 297.167C206.835 297.152 207.142 297.137 207.456 297.122C207.717 297.107 207.986 297.099 208.255 297.092C208.517 297.077 208.786 297.069 209.062 297.062C209.817 297.04 210.594 297.017 211.387 297.002C213.643 296.965 216.02 296.98 218.516 297.032C219.674 297.055 220.855 297.092 222.066 297.144C222.14 297.144 222.223 297.152 222.297 297.152C223.351 297.182 224.42 297.234 225.503 297.286C226.266 297.324 227.035 297.361 227.805 297.406C228.53 297.451 229.262 297.495 230.002 297.548C230.578 297.578 231.153 297.622 231.736 297.66C232.229 297.697 232.722 297.735 233.216 297.764C233.806 297.809 234.396 297.854 234.994 297.899C235.816 297.966 236.638 298.033 237.475 298.101C238.305 298.175 239.149 298.25 239.994 298.325C240.838 298.4 241.69 298.482 242.542 298.564C242.632 298.572 242.714 298.579 242.796 298.587C243.573 298.669 244.35 298.743 245.135 298.826C249.485 299.267 253.961 299.782 258.564 300.373C261.314 300.724 264.099 301.1 266.919 301.501C271.201 302.106 275.551 302.764 279.93 303.466C284.317 304.176 288.728 304.926 293.165 305.716C294.286 305.918 295.407 306.119 296.535 306.329C297.91 306.583 299.285 306.842 300.66 307.106C301.527 307.27 302.394 307.435 303.261 307.607C304.292 307.808 305.331 308.01 306.362 308.212C313.155 309.557 319.911 310.992 326.503 312.494C327.586 312.741 328.67 312.995 329.746 313.241C331.898 313.742 334.03 314.25 336.143 314.766C336.726 314.908 337.301 315.05 337.877 315.192C339.319 315.55 340.746 315.909 342.159 316.268V316.275C342.241 316.29 342.323 316.313 342.405 316.335C343.437 316.597 344.46 316.858 345.477 317.127C347.876 317.755 350.235 318.388 352.554 319.025C354.093 319.459 355.618 319.885 357.12 320.318C359.369 320.976 361.574 321.634 363.719 322.291C364.249 322.456 364.78 322.62 365.303 322.777C366.872 323.27 368.412 323.761 369.921 324.249C371.117 324.638 372.283 325.034 373.434 325.43C374.585 325.826 375.713 326.222 376.819 326.618C377.536 326.872 378.239 327.134 378.934 327.388C379.95 327.762 380.937 328.135 381.908 328.516C382.207 328.628 382.499 328.748 382.79 328.86C383.336 329.069 383.866 329.286 384.389 329.503C384.74 329.637 385.084 329.779 385.428 329.929C385.764 330.063 386.108 330.205 386.437 330.347C386.773 330.482 387.102 330.624 387.431 330.773C387.707 330.885 387.976 331.005 388.238 331.124C388.769 331.356 389.299 331.588 389.815 331.827C390.069 331.947 390.323 332.059 390.577 332.178L391.16 332.447C391.242 332.492 391.324 332.529 391.407 332.567C392.042 332.866 392.655 333.165 393.252 333.464C393.813 333.748 394.358 334.032 394.882 334.308C395.502 334.637 396.092 334.958 396.66 335.287C396.772 335.347 396.884 335.414 396.996 335.474C397.378 335.691 397.744 335.915 398.11 336.131C398.827 336.572 399.507 337.006 400.143 337.439C400.77 337.873 401.353 338.299 401.899 338.725C401.899 338.732 401.899 338.732 401.906 338.732C402.168 338.941 402.422 339.151 402.661 339.352C403.05 339.689 403.408 340.01 403.737 340.339C403.847 340.44 403.952 340.548 404.051 340.66C404.095 340.696 404.135 340.736 404.171 340.78C404.328 340.952 404.484 341.123 404.634 341.295C404.813 341.505 404.978 341.714 405.135 341.923C405.209 342.028 405.292 342.132 405.359 342.237C405.449 342.364 405.538 342.499 405.613 342.626C405.68 342.73 405.74 342.842 405.8 342.947C405.958 343.216 406.093 343.499 406.203 343.791C406.285 343.991 406.353 344.195 406.405 344.404C406.462 344.603 406.504 344.805 406.532 345.01Z" fill="black"/>
</g>
<defs>
<clipPath id="clip0_957_734">
<rect y="0.172363" width="588" height="427.655" rx="16" fill="white"/>
</clipPath>
</defs>
</svg>
