<svg width="24" height="50" viewBox="0 0 24 50" fill="none" xmlns="http://www.w3.org/2000/svg">
<path d="M22.6233 19.9065C19.99 8.28152 13.765 4.46068 13.0962 3.00027C12.5129 2.17943 11.9921 1.01277 11.565 0.000267029C11.49 1.03152 11.4504 1.42735 10.4754 2.46693C8.96915 3.6461 1.22956 10.1378 0.600396 23.3419C0.0128957 35.6586 9.49623 42.9982 10.7837 43.9336L10.9296 44.0378C11.1977 46.0206 11.4269 48.0085 11.6171 50.0003H12.6191C12.8565 47.8505 13.2112 45.7154 13.6816 43.6044C14.5504 42.9878 14.94 42.6398 15.4525 42.1607C17.8795 39.9155 19.8083 37.1859 21.1142 34.1485C22.4201 31.111 23.074 27.8334 23.0337 24.5273C23.0546 22.8315 22.8191 21.0648 22.6233 19.9065ZM11.5066 36.9794C11.5066 36.9794 11.5066 19.7065 12.0796 19.7086C12.5233 19.7086 13.1004 41.9898 13.1004 41.9898C12.3066 41.8961 11.5066 38.3232 11.5066 36.9794Z" fill="#E2E7F8"/>
</svg>
