<svg width="45" height="50" viewBox="0 0 45 50" fill="none" xmlns="http://www.w3.org/2000/svg">
<path d="M22.4538 50.0005C21.785 50.0005 21.1184 49.8255 20.5329 49.486L14.4163 45.8672C13.5038 45.3568 13.9496 45.1755 14.2496 45.0693C15.4684 44.6464 15.7142 44.5485 17.0163 43.811C17.1517 43.7339 17.3309 43.763 17.4704 43.8464L22.1704 46.636C22.2577 46.6823 22.355 46.7065 22.4538 46.7065C22.5526 46.7065 22.6499 46.6823 22.7371 46.636L41.06 36.061C41.1454 36.0095 41.216 35.9367 41.265 35.8498C41.3139 35.7629 41.3395 35.6648 41.3392 35.5651V14.4193C41.339 14.3178 41.3127 14.2181 41.2627 14.1297C41.2127 14.0414 41.1407 13.9675 41.0538 13.9151L22.7392 3.34845C22.6529 3.30029 22.5557 3.275 22.4569 3.275C22.3581 3.275 22.2609 3.30029 22.1746 3.34845L3.86419 13.9172C3.77691 13.969 3.70442 14.0424 3.65371 14.1304C3.60299 14.2183 3.57576 14.3178 3.57461 14.4193V35.5651C3.57501 35.6651 3.60206 35.7632 3.65296 35.8492C3.70386 35.9353 3.77677 36.0062 3.86419 36.0547L8.88294 38.9547C11.6059 40.3172 13.2746 38.713 13.2746 37.1005V16.2235C13.2746 15.9276 13.5121 15.6964 13.8079 15.6964H16.1309C16.4204 15.6964 16.6621 15.9297 16.6621 16.2235V37.1005C16.6621 40.736 14.6829 42.8193 11.2371 42.8193C10.1788 42.8193 9.34336 42.8193 7.01628 41.6714L2.20794 38.9068C1.62348 38.5664 1.13852 38.0787 0.801467 37.4924C0.464414 36.906 0.28706 36.2415 0.287109 35.5651V14.4193C0.287109 13.0464 1.02253 11.763 2.20794 11.0797L20.5309 0.492204C21.1211 0.169263 21.7831 0 22.4559 0C23.1287 0 23.7906 0.169263 24.3809 0.492204L42.7017 11.0797C43.8892 11.7651 44.6267 13.0464 44.6267 14.4193V35.5651C44.6255 36.2417 44.4471 36.9062 44.1094 37.4924C43.7717 38.0787 43.2864 38.5663 42.7017 38.9068L24.3809 49.486C23.7975 49.8255 23.1329 50.0005 22.4538 50.0005ZM37.2475 29.1526C37.2475 25.1943 34.5725 24.1401 28.9413 23.3964C23.2517 22.6443 22.6725 22.2547 22.6725 20.9235C22.6725 19.8235 23.1621 18.3547 27.3767 18.3547C31.1413 18.3547 32.5288 19.1651 33.0996 21.7026C33.1256 21.8199 33.1907 21.9248 33.2842 22.0001C33.3777 22.0755 33.4941 22.1167 33.6142 22.1172H35.9913C36.0639 22.1165 36.1356 22.1012 36.2022 22.0722C36.2687 22.0432 36.3288 22.0011 36.3788 21.9485C36.4291 21.8938 36.4675 21.8293 36.4915 21.759C36.5156 21.6887 36.5247 21.6141 36.5184 21.5401C36.1496 17.1693 33.2454 15.1318 27.3767 15.1318C22.1517 15.1318 19.035 17.336 19.035 21.0339C19.035 25.0443 22.135 26.1526 27.1496 26.6485C33.1496 27.236 33.6142 28.113 33.6142 29.2922C33.6142 31.3401 31.9704 32.213 28.11 32.213C23.2621 32.213 22.1954 30.9964 21.8371 28.5839C21.8172 28.4586 21.7531 28.3445 21.6565 28.2624C21.5598 28.1802 21.4369 28.1354 21.31 28.136H18.9413C18.8718 28.1354 18.8029 28.1486 18.7386 28.1749C18.6743 28.2012 18.6158 28.2399 18.5666 28.289C18.5174 28.338 18.4784 28.3963 18.4519 28.4605C18.4253 28.5247 18.4118 28.5936 18.4121 28.663C18.4121 31.7505 20.0913 35.4297 28.11 35.4297C33.9184 35.4318 37.2475 33.1464 37.2475 29.1526Z" fill="#E2E7F8"/>
</svg>
