<svg width="51" height="50" viewBox="0 0 51 50" fill="none" xmlns="http://www.w3.org/2000/svg">
<g clip-path="url(#clip0_941_278)">
<mask id="mask0_941_278" style="mask-type:luminance" maskUnits="userSpaceOnUse" x="0" y="0" width="51" height="51">
<path d="M0.287109 0.000267029H50.2871V50.0003H0.287109V0.000267029Z" fill="white"/>
</mask>
<g mask="url(#mask0_941_278)">
<path d="M49.0975 0.000274339H1.47461C1.31849 0.000274099 1.1639 0.0310586 1.01969 0.0908663C0.875483 0.150674 0.744481 0.238331 0.634184 0.348821C0.523888 0.459312 0.43646 0.590467 0.376906 0.734781C0.317351 0.879096 0.286837 1.03374 0.287111 1.18986V48.8128C0.286837 48.9691 0.317419 49.1239 0.377104 49.2683C0.436789 49.4128 0.524402 49.544 0.63492 49.6545C0.745438 49.7651 0.876685 49.8527 1.02114 49.9124C1.16559 49.972 1.3204 50.0026 1.47669 50.0024H49.0996C49.2559 50.0026 49.4107 49.972 49.5552 49.9124C49.6996 49.8527 49.8309 49.7651 49.9414 49.6545C50.0519 49.544 50.1395 49.4128 50.1992 49.2683C50.2589 49.1239 50.2895 48.9691 50.2892 48.8128V1.18777C50.2892 1.03148 50.2583 0.87672 50.1984 0.732373C50.1385 0.588027 50.0506 0.456933 49.9399 0.346608C49.8292 0.236284 49.6978 0.148901 49.5532 0.0894687C49.4087 0.0300368 49.2538 -0.000274067 49.0975 0.000274339ZM30.0496 26.7211H24.0975V45.2378H19.335V26.7211H13.3829V22.619H30.0496V26.7211ZM31.3829 44.1794V39.2315C31.3829 39.2315 34.0871 41.269 37.3309 41.269C40.5746 41.269 40.4496 39.1482 40.4496 38.8565C40.4496 35.7794 31.2579 35.7794 31.2579 28.9586C31.2579 19.6836 44.6517 23.344 44.6517 23.344L44.485 27.7524C44.485 27.7524 42.2392 26.2544 39.7017 26.2544C37.1642 26.2544 36.2496 27.4628 36.2496 28.7503C36.2496 32.0774 45.5246 31.7461 45.5246 38.4419C45.5246 48.7544 31.3829 44.1815 31.3829 44.1815" fill="#E2E7F8"/>
</g>
</g>
<defs>
<clipPath id="clip0_941_278">
<rect width="50" height="50" fill="white" transform="translate(0.287109 0.000267029)"/>
</clipPath>
</defs>
</svg>
