<svg width="51" height="50" viewBox="0 0 51 50" fill="none" xmlns="http://www.w3.org/2000/svg">
<path d="M25.6608 12.5008C22.3456 12.5008 19.1662 13.8177 16.822 16.162C14.4778 18.5062 13.1608 21.6856 13.1608 25.0008H2.74414C2.74414 12.3445 13.0046 2.08412 25.6608 2.08412C38.3171 2.08412 48.5775 12.3445 48.5775 25.0008C48.5775 37.657 38.3171 47.9175 25.6608 47.9175V37.5008C28.976 37.5008 32.1554 36.1838 34.4996 33.8396C36.8438 31.4954 38.1608 28.316 38.1608 25.0008C38.1608 21.6856 36.8438 18.5062 34.4996 16.162C32.1554 13.8177 28.976 12.5008 25.6608 12.5008Z" fill="#070C1D"/>
<path d="M15.2441 37.5008V27.0841H25.6608V37.5008H15.2441ZM6.91081 37.5008V45.8341H15.2441V37.5008H6.91081ZM6.91081 37.5008H2.74414V33.3341H6.91081V37.5008Z" fill="#070C1D"/>
</svg>
