<svg width="51" height="50" viewBox="0 0 51 50" fill="none" xmlns="http://www.w3.org/2000/svg">
<g clip-path="url(#clip0_1074_472)">
<path d="M50.9275 48.7758L49.8691 47.7675C49.3462 47.0779 48.79 46.4675 48.1837 45.9112L48.1733 45.9029C47.5511 45.3376 46.9046 44.8001 46.2337 44.2904C45.6962 43.9209 44.9573 43.4758 44.0171 42.955C43.2441 42.6071 42.64 41.9966 42.3129 41.2383L42.3046 41.2175L42.2046 41.1675C42.6462 41.1237 43.0504 41.0425 43.4379 40.9279L43.39 40.9404L44.5775 40.6133C45.0691 40.4591 45.6379 40.3591 46.2275 40.3362H46.24C46.8608 40.3112 47.4462 40.2112 48.0046 40.0466L47.9525 40.0591C48.2219 39.9925 48.499 39.9168 48.7837 39.832C49.0684 39.7473 49.3122 39.6716 49.515 39.605V39.2529C49.3136 38.9515 49.0698 38.607 48.7837 38.2195C48.5108 37.8487 48.2046 37.5258 47.8608 37.2446L47.8504 37.2362C46.9768 36.464 46.0719 35.7168 45.1358 34.9946C44.3108 34.3508 43.3754 33.6945 42.4046 33.0862L42.2629 33.0029C41.7504 32.6654 41.1629 32.3529 40.5441 32.0966L40.4733 32.0716C39.8511 31.8189 39.2379 31.5418 38.6337 31.2404C38.4316 31.1404 38.1962 31.0529 37.9525 30.9925L37.9296 30.9883C37.6858 30.9383 37.4775 30.8133 37.3254 30.6362L37.3233 30.6341C37.0358 30.255 36.7837 29.8237 36.5837 29.3654L36.5671 29.3237C36.3657 28.8529 36.1476 28.4008 35.9129 27.9675C35.4087 26.9925 34.9212 26.0015 34.4504 24.9945C33.9796 23.9876 33.5275 22.9793 33.0941 21.9695C32.7928 21.2973 32.5157 20.6258 32.2629 19.955C31.9837 19.2175 31.6691 18.5862 31.3025 17.9925L31.3296 18.0404C30.4296 16.507 29.5316 15.1987 28.5566 13.955L28.615 14.0341C27.6504 12.8175 26.6504 11.73 25.5754 10.7216L25.5587 10.7071C24.4983 9.71122 23.3566 8.76122 22.1587 7.88205L22.0566 7.80913C20.8122 6.90497 19.4511 6.01469 17.9733 5.1383C17.3796 4.7883 16.69 4.50288 15.9629 4.31955L15.9087 4.30705L13.59 3.72788L12.2796 3.62788C11.8434 3.59455 11.4066 3.57788 10.9691 3.57788C10.6608 3.41538 10.3962 3.22163 10.1629 2.99663C9.93372 2.77788 9.68581 2.57163 9.42747 2.38205L9.40664 2.36747C8.14622 1.63205 6.68164 0.959134 5.15039 0.429967L4.97331 0.375801C4.57122 0.140384 4.08789 0.00288391 3.57331 0.00288391C3.20664 0.00288391 2.85456 0.0737172 2.53372 0.200801L2.55247 0.194551C1.76081 0.509134 1.15664 1.14872 0.896224 1.94455L0.889974 1.96538C0.737891 2.32372 0.650391 2.7383 0.650391 3.1758C0.650391 3.94247 0.921224 4.64455 1.37331 5.19247L1.36914 5.18622C2.1247 6.19316 2.70386 6.98483 3.10664 7.56122C3.40803 7.96538 3.71914 8.38552 4.03997 8.82163C4.33372 9.2133 4.59414 9.66122 4.80456 10.1341L4.82122 10.1779C4.93789 10.4258 5.03997 10.7216 5.11497 11.0258L5.12122 11.0591C5.18789 11.3452 5.27192 11.6564 5.37331 11.9925C5.6747 12.7647 5.96011 13.5564 6.22956 14.3675C6.52331 15.2529 6.84831 16.0029 7.22539 16.7175L7.18581 16.6341C7.3872 17.0036 7.58928 17.3647 7.79206 17.7175C7.99483 18.0702 8.21289 18.4147 8.44622 18.7508C8.58164 18.955 8.75247 19.1237 8.94831 19.255L8.95456 19.2591C9.16081 19.4091 9.29622 19.6445 9.30664 19.9112C9.06914 20.2612 8.90872 20.682 8.85456 21.1341L8.85247 21.1466C8.77956 21.6737 8.67539 22.1425 8.53372 22.5945L8.55039 22.532C8.08581 23.9195 7.81914 25.5195 7.81914 27.18C7.81914 27.7175 7.84622 28.2466 7.90247 28.7695L7.89622 28.705C8.02122 30.7008 8.62331 32.5341 9.58789 34.1216L9.55872 34.0696C9.96914 34.6841 10.4087 35.2195 10.8941 35.7091C11.2441 36.1008 11.7525 36.3466 12.3191 36.3466C12.6358 36.3466 12.9358 36.2696 13.1983 36.1321L13.1879 36.1362C13.9171 35.8737 14.4358 35.207 14.4733 34.4133V34.4091C14.5733 33.4216 14.7233 32.5383 14.9296 31.6758L14.9025 31.8154C14.9525 31.6841 14.9816 31.5341 14.9816 31.3758C14.9816 31.3445 14.9796 31.3133 14.9775 31.282V31.2862C14.9608 31.1348 15.0532 30.9918 15.2546 30.857V30.957C15.4559 31.4279 15.6657 31.898 15.8837 32.3675C16.1018 32.8369 16.3282 33.307 16.5629 33.7779C17.1775 34.7133 17.8296 35.53 18.5462 36.2821L18.54 36.2758C19.2587 37.0508 20.0421 37.7466 20.8879 38.3612L20.9337 38.3925C21.3754 38.73 21.7629 39.0945 22.1129 39.4925L22.1212 39.5008C22.4504 39.8883 22.8441 40.207 23.2879 40.4466L23.3087 40.4571V40.4071H23.4087C23.3275 40.2258 23.1962 40.08 23.0337 39.98L23.0296 39.9779C22.865 39.8862 22.7233 39.7945 22.59 39.6945L22.6004 39.7008C22.299 39.3994 21.9879 39.0633 21.6671 38.6925C21.3462 38.3216 21.0525 37.9689 20.7858 37.6341C20.0803 36.6591 19.4073 35.6404 18.7671 34.5779C18.1268 33.5154 17.5219 32.4355 16.9525 31.3383C16.683 30.8008 16.4226 30.2466 16.1712 29.6758C15.9198 29.105 15.6761 28.5508 15.44 28.0133C15.3379 27.807 15.2671 27.5695 15.24 27.3175V27.307C15.2275 27.0675 15.09 26.8612 14.89 26.755L14.8858 26.7529C14.6337 27.182 14.3546 27.5529 14.0358 27.8883L14.0379 27.8862C13.7066 28.2341 13.4358 28.6445 13.2421 29.0945L13.2316 29.1216C12.9379 29.8341 12.7233 30.6612 12.6296 31.5258L12.6254 31.5654C12.5254 32.4557 12.4247 33.3709 12.3233 34.3112L12.2233 34.3612L12.1733 34.4112C11.6316 34.3008 11.1858 33.955 10.9441 33.4883L10.94 33.4779C10.6872 32.9904 10.4608 32.5112 10.2608 32.0404C9.74414 30.7133 9.42331 29.1779 9.37956 27.5737V27.555C9.36081 27.3008 9.35247 27.0029 9.35247 26.705C9.35247 25.3175 9.57122 23.98 9.97539 22.7258L9.95039 22.8175C10.0504 22.448 10.2684 21.8258 10.6046 20.9508C10.9407 20.0758 11.008 19.4709 10.8066 19.1362C10.7025 18.7925 10.5087 18.5029 10.2546 18.282L10.2525 18.28C9.99831 18.0591 9.76706 17.8279 9.55456 17.582L9.54831 17.5737C9.31359 17.2348 9.0872 16.8737 8.86914 16.4904C8.65108 16.1071 8.45803 15.7293 8.28997 15.357C7.94622 14.5612 7.59414 13.5633 7.30247 12.5383L7.25664 12.3529C6.92539 11.1758 6.55664 10.18 6.11914 9.22163L6.17331 9.35497C5.94206 8.82997 5.67331 8.3758 5.36081 7.96122L5.37331 7.97788C5.03442 7.52511 4.73164 7.09663 4.46497 6.69247C4.12608 6.25636 3.78997 5.83622 3.45664 5.43205C3.11706 5.02163 2.81497 4.55913 2.56914 4.0633L2.55039 4.02163C2.45039 3.81955 2.36289 3.58413 2.30247 3.34038L2.29831 3.31747C2.27539 3.24455 2.26289 3.15913 2.26289 3.07372C2.26289 2.90288 2.31289 2.74247 2.40039 2.60913L2.39831 2.6133C2.42122 2.49663 2.47539 2.39455 2.55039 2.31122C2.63164 2.2383 2.73581 2.18413 2.84831 2.16122H2.85247C3.02956 2.04663 3.24414 1.97788 3.47747 1.97788C3.65247 1.97788 3.82122 2.01747 3.96914 2.0883L3.96289 2.08622C4.41914 2.21538 4.78789 2.34455 5.14831 2.49247L5.07331 2.46538C5.71081 2.73483 6.299 2.99524 6.83789 3.24663C7.45872 3.54247 7.98789 3.85497 8.48789 4.20288L8.45039 4.17788C8.71983 4.34594 8.98858 4.53066 9.25664 4.73205C9.5247 4.93344 9.81011 5.13552 10.1129 5.3383H10.8191C11.3566 5.3383 11.9275 5.36399 12.5316 5.41538C13.1421 5.4633 13.7066 5.57788 14.2441 5.75705L14.1941 5.74247C15.1962 6.04038 16.0566 6.39247 16.8733 6.81538L16.7879 6.7758C17.6115 7.19525 18.3927 7.64038 19.1316 8.11122C20.3587 8.8758 21.4191 9.65913 22.4171 10.5154L22.3816 10.4862C23.4233 11.3779 24.3691 12.2925 25.2566 13.2591L25.2775 13.2841C26.1441 14.23 26.9712 15.2571 27.7275 16.3341L27.7921 16.4321C28.4879 17.4154 29.19 18.5529 29.8212 19.732L29.9087 19.9091C30.0775 20.23 30.2483 20.6237 30.3962 21.0258L30.4191 21.0945C30.5539 21.4807 30.7046 21.8765 30.8712 22.282C31.2407 23.1223 31.6365 23.9702 32.0587 24.8258C32.4809 25.6814 32.8768 26.5133 33.2462 27.3216L34.3546 29.7404C34.7441 30.5862 35.1796 31.3154 35.6858 31.9883L35.6629 31.957C36.0858 32.4091 36.6504 32.7258 37.2837 32.8362L37.3004 32.8383C38.0671 33.03 38.7129 33.2466 39.3379 33.5029L39.24 33.4675C39.5379 33.6029 39.9212 33.7466 40.315 33.8737L40.3983 33.8966C40.84 34.0321 41.2233 34.2112 41.5754 34.4362L41.5566 34.4258C42.2379 34.8071 42.815 35.1821 43.365 35.5904L43.3212 35.5591C43.8921 35.9786 44.4629 36.3744 45.0337 36.7466C45.3032 36.948 45.7552 37.2418 46.39 37.6279C47.0247 38.014 47.3608 38.3751 47.3983 38.7112C47.1608 38.7029 46.8796 38.6966 46.5983 38.6966C45.5733 38.6966 44.565 38.7633 43.5775 38.8925L43.6941 38.88C42.5775 39.03 41.565 39.3029 40.6129 39.6925L40.6962 39.6633C40.4608 39.7654 40.1796 39.8591 39.8879 39.932L39.8483 39.9404C39.5525 39.9841 39.3233 40.2216 39.2941 40.5175C39.4212 40.6758 39.5233 40.8612 39.5921 41.0612L39.5962 41.0737C39.6671 41.2862 39.7525 41.4695 39.8566 41.6404L39.8504 41.6279C40.0983 42.0675 40.365 42.4466 40.665 42.7966L40.6566 42.7862C40.9504 43.1487 41.2816 43.4633 41.6483 43.732L41.6629 43.7425C42.0018 44.0119 42.3546 44.289 42.7212 44.5737C43.0566 44.8362 43.4358 45.0945 43.8296 45.3279L43.8796 45.355C44.4712 45.7175 45.1587 46.0633 45.8754 46.3529L45.9712 46.3862C46.7504 46.6987 47.4191 47.0612 48.04 47.4925L48.0066 47.4695C48.4108 47.7043 48.8136 47.9647 49.215 48.2508C49.6164 48.5369 50.0025 48.814 50.3733 49.082C50.5254 49.232 50.6587 49.3987 50.7712 49.58L50.7775 49.5904C50.9671 49.807 51.2296 49.955 51.5275 49.9925H51.5337V49.8925C51.3504 49.7529 51.215 49.5591 51.1504 49.3362L51.1483 49.3279C51.0962 49.1154 51.0191 48.93 50.915 48.7591L50.9191 48.7675L50.9275 48.7758ZM12.2275 8.76538C11.958 8.76538 11.7059 8.77372 11.4712 8.79038C11.2316 8.80705 11.0087 8.8508 10.7983 8.92163L10.8171 8.91538V8.96538H10.9171C11.0518 9.16677 11.2212 9.39316 11.4254 9.64455C11.6296 9.89594 11.8143 10.1397 11.9796 10.3758L12.7858 12.0383L12.8858 11.9883C13.1212 11.8175 13.3025 11.5883 13.4108 11.3196L13.415 11.3091C13.5233 11.0196 13.5858 10.6821 13.5858 10.3321C13.5858 10.2946 13.5858 10.2571 13.5837 10.2196V10.2258C13.49 10.1341 13.4129 10.0258 13.3587 9.90497L13.3566 9.89872L13.1879 9.51955C13.0775 9.34455 12.9233 9.20705 12.7421 9.11955L12.7358 9.11747C12.54 9.02372 12.3733 8.90497 12.2275 8.76538Z" fill="#070C1D"/>
</g>
<defs>
<clipPath id="clip0_1074_472">
<rect width="50" height="50" fill="white" transform="translate(0.65918 0.000793457)"/>
</clipPath>
</defs>
</svg>
