<svg width="51" height="50" viewBox="0 0 51 50" fill="none" xmlns="http://www.w3.org/2000/svg">
<path d="M1.76947 21.4726L16.2303 6.98676L20.4585 11.2399C19.858 13.3665 20.8338 15.6933 22.7852 16.8191V30.6795C21.2841 31.5302 20.2834 33.1564 20.2834 35.0078C20.2834 36.3349 20.8105 37.6076 21.7489 38.546C22.6873 39.4843 23.96 40.0115 25.2871 40.0115C26.6142 40.0115 27.8869 39.4843 28.8253 38.546C29.7637 37.6076 30.2909 36.3349 30.2909 35.0078C30.2909 33.1564 29.2901 31.5302 27.789 30.6795V18.5204L32.9679 23.7493C32.7927 24.1246 32.7927 24.5499 32.7927 25.0003C32.7927 26.3273 33.3199 27.6001 34.2583 28.5385C35.1967 29.4768 36.4694 30.004 37.7965 30.004C39.1236 30.004 40.3963 29.4768 41.3347 28.5385C42.2731 27.6001 42.8002 26.3273 42.8002 25.0003C42.8002 23.6732 42.2731 22.4005 41.3347 21.4621C40.3963 20.5237 39.1236 19.9965 37.7965 19.9965C37.3462 19.9965 36.9208 19.9965 36.5456 20.1716L30.1157 13.7418C30.4264 12.583 30.3059 11.3509 29.7768 10.2742C29.2477 9.19751 28.3458 8.34942 27.2386 7.88743C26.1628 7.48713 25.0369 7.38706 24.0362 7.66226L19.783 3.43409L21.7595 1.48263C23.7109 -0.493854 26.8633 -0.493854 28.8148 1.48263L48.8047 21.4726C50.7812 23.4241 50.7812 26.5764 48.8047 28.5279L28.8148 48.5179C26.8633 50.4944 23.7109 50.4944 21.7595 48.5179L1.76947 28.5279C-0.207011 26.5764 -0.207011 23.4241 1.76947 21.4726Z" fill="#070C1D"/>
</svg>
