<svg width="51" height="50" viewBox="0 0 51 50" fill="none" xmlns="http://www.w3.org/2000/svg">
<g clip-path="url(#clip0_941_276)">
<path d="M4.34721 21.3149C4.2493 21.3149 4.22638 21.2669 4.2743 21.1919L4.7868 20.5357C4.83471 20.4628 4.95555 20.4148 5.05346 20.4148H13.7451C13.841 20.4148 13.866 20.4878 13.818 20.5607L13.4035 21.1919C13.3555 21.2669 13.2326 21.3378 13.1597 21.3378L4.34721 21.3149ZM0.672213 23.5544C0.574296 23.5544 0.549296 23.5065 0.599296 23.4336L1.10971 22.7753C1.15763 22.7024 1.28055 22.6544 1.37846 22.6544H12.4785C12.5764 22.6544 12.6243 22.7274 12.5993 22.8003L12.4055 23.3836C12.3805 23.4815 12.2847 23.5294 12.1868 23.5294L0.672213 23.5544ZM6.56388 25.794C6.46596 25.794 6.44096 25.7211 6.49096 25.6482L6.83055 25.0399C6.87846 24.9669 6.97638 24.894 7.0743 24.894H11.943C12.041 24.894 12.0889 24.9669 12.0889 25.0649L12.041 25.6482C12.041 25.7461 11.943 25.819 11.8701 25.819L6.56388 25.794ZM31.8326 20.8773C30.2993 21.2669 29.2514 21.5586 27.743 21.9482C27.3764 22.044 27.3535 22.069 27.0347 21.7044C26.6722 21.2899 26.4035 21.0232 25.893 20.7794C24.3576 20.0253 22.8722 20.244 21.4868 21.144C19.8305 22.2149 18.9785 23.7982 19.0035 25.769C19.0264 27.7169 20.366 29.3232 22.2889 29.5919C23.9451 29.8107 25.3305 29.2274 26.4285 27.9878C26.6472 27.7169 26.841 27.4253 27.0847 27.0836H22.3868C21.8764 27.0836 21.7535 26.7669 21.9243 26.3544C22.241 25.6003 22.8243 24.3336 23.166 23.7003C23.2192 23.5837 23.3049 23.485 23.4128 23.4159C23.5207 23.3468 23.6462 23.3103 23.7743 23.3107H32.6347C32.5868 23.969 32.5868 24.6253 32.4889 25.2836C32.2352 27.0164 31.5488 28.6572 30.493 30.0544C28.741 32.3669 26.4514 33.8044 23.5555 34.1919C21.1701 34.5086 18.9535 34.0461 17.0076 32.5878C15.2055 31.2232 14.1826 29.4211 13.916 27.1815C13.5993 24.5274 14.3785 22.1419 15.9847 20.0482C17.7139 17.7857 20.0014 16.3482 22.8014 15.8399C25.0889 15.4232 27.2805 15.694 29.2514 17.0294C30.543 17.8836 31.466 19.0503 32.0764 20.4628C32.2222 20.6815 32.1243 20.8044 31.8326 20.8794M39.891 34.3398C37.6743 34.2899 35.6535 33.6565 33.9493 32.1961C32.5323 31.0007 31.598 29.3311 31.3201 27.4982C30.8826 24.7482 31.6368 22.3128 33.293 20.1461C35.0701 17.8086 37.2118 16.5919 40.1097 16.0836C42.593 15.6461 44.9305 15.8857 47.0472 17.3232C48.9701 18.6357 50.1639 20.4149 50.4805 22.7503C50.893 26.0378 49.9451 28.7149 47.6805 31.0044C46.0743 32.6357 44.1014 33.6565 41.8368 34.119C41.1805 34.244 40.5243 34.2649 39.891 34.3398ZM45.6826 24.5065C45.6597 24.1878 45.6597 23.944 45.6118 23.7003C45.1743 21.2899 42.9576 19.9294 40.6451 20.4628C38.3805 20.9732 36.9201 22.4107 36.3847 24.6982C35.9472 26.5982 36.8722 28.5211 38.6243 29.3023C39.9639 29.8857 41.3014 29.8107 42.593 29.1565C44.516 28.1565 45.5618 26.5982 45.6847 24.5044L45.6826 24.5065Z" fill="#070C1D"/>
</g>
<defs>
<clipPath id="clip0_941_276">
<rect width="50" height="50" fill="white" transform="translate(0.574219 0.000267029)"/>
</clipPath>
</defs>
</svg>
