<svg width="46" height="50" viewBox="0 0 46 50" fill="none" xmlns="http://www.w3.org/2000/svg">
<path d="M41.1567 0.00138622H5.30827C4.71016 -0.0119929 4.11544 0.0946986 3.55928 0.315151C3.00312 0.535604 2.49681 0.865342 2.07029 1.28486C1.64378 1.70439 1.30572 2.20518 1.0761 2.75762C0.846489 3.31006 0.729983 3.90294 0.733475 4.50118V45.4994C0.729983 46.0976 0.846489 46.6905 1.0761 47.2429C1.30572 47.7954 1.64378 48.2962 2.07029 48.7157C2.49681 49.1352 3.00312 49.4649 3.55928 49.6854C4.11544 49.9058 4.71016 50.0125 5.30827 49.9991H41.1567C41.7539 50.0091 42.3471 49.9001 42.9017 49.6784C43.4563 49.4567 43.9613 49.1268 44.3871 48.708C44.8129 48.2892 45.1511 47.7897 45.3819 47.2388C45.6127 46.688 45.7315 46.0966 45.7315 45.4994V4.50118C45.7315 3.9039 45.6127 3.31257 45.3819 2.76169C45.1511 2.2108 44.8129 1.71138 44.3871 1.29253C43.9613 0.873695 43.4563 0.543821 42.9017 0.322146C42.3471 0.100471 41.7539 -0.00856855 41.1567 0.00138622ZM43.2316 45.4994C43.2316 45.7641 43.1791 46.0262 43.077 46.2705C42.9749 46.5148 42.8254 46.7364 42.637 46.9224C42.4486 47.1085 42.2252 47.2552 41.9797 47.3543C41.7341 47.4533 41.4714 47.5026 41.2067 47.4993H5.30827C5.04471 47.5026 4.78314 47.4532 4.53898 47.3539C4.29483 47.2546 4.07302 47.1074 3.88664 46.921C3.70026 46.7346 3.55307 46.5128 3.45375 46.2686C3.35444 46.0245 3.305 45.7629 3.30836 45.4994V4.50118C3.305 4.23762 3.35444 3.97605 3.45375 3.7319C3.55307 3.48774 3.70026 3.26593 3.88664 3.07955C4.07302 2.89317 4.29483 2.74598 4.53898 2.64667C4.78314 2.54735 5.04471 2.49792 5.30827 2.50127H41.1567C41.4214 2.49797 41.6841 2.54725 41.9297 2.64627C42.1752 2.7453 42.3986 2.89208 42.587 3.07812C42.7754 3.26416 42.9249 3.48575 43.027 3.73003C43.1291 3.97432 43.1816 4.23644 43.1816 4.50118L43.2316 45.4994Z" fill="#070C1D"/>
<path d="M12.0582 42.4995L17.6829 37.4998L12.0582 32.5V42.4995ZM26.2826 20.0005C23.0844 20.0802 19.9195 20.671 16.908 21.7505V7.5011H11.9082V29.1251L15.433 27.5002C18.8283 26.0284 22.4614 25.1815 26.1576 25.0003C28.6575 25.0003 29.2824 26.3753 29.2824 27.6252V42.6245H34.2822V27.5002C34.3487 26.5325 34.2044 25.562 33.8591 24.6556C33.5138 23.7492 32.9758 22.9286 32.2823 22.2504C31.4853 21.4907 30.5431 20.8998 29.5121 20.5131C28.4811 20.1265 27.3826 19.9522 26.2826 20.0005ZM25.7326 15.6257H30.7324C32.7676 13.3625 34.0515 10.524 34.4072 7.5011H29.4074C28.8864 10.4756 27.6224 13.2703 25.7326 15.6257Z" fill="#070C1D"/>
</svg>
