<svg width="51" height="50" viewBox="0 0 51 50" fill="none" xmlns="http://www.w3.org/2000/svg">
<g clip-path="url(#clip0_1074_445)">
<path d="M46.3948 31.0779L46.4031 31.0695L46.3906 31.0779H46.3927H46.3948Z" fill="#070C1D"/>
<path d="M40.2234 30.682L40.2276 30.6862L40.2214 30.6904C39.9193 30.8008 39.6693 30.8466 39.4589 30.9404C39.2443 31.0258 39.0714 31.182 38.9693 31.382L38.9672 31.3862C38.838 31.6258 38.7255 32.0508 38.7589 32.7737C38.8443 32.8362 38.9484 32.8841 39.0547 32.9175L39.063 32.9195C39.4151 33.0279 40.0047 33.0987 40.663 33.0883C41.9755 33.0737 43.5922 32.7633 44.4505 32.3591C45.1901 32.007 45.8234 31.582 46.388 31.0779C43.5214 31.6779 41.9026 31.5175 40.9089 31.1029C40.6505 30.9904 40.4234 30.8508 40.2234 30.682Z" fill="#070C1D"/>
<path d="M37.2842 8.64871L37.2967 8.66746L37.3113 8.68413L37.2842 8.64871Z" fill="#070C1D"/>
<path d="M26.3192 40.207C26.3171 40.155 26.3192 40.1008 26.3171 40.0487C26.3171 40.0279 26.315 40.0133 26.315 39.9925L26.3192 40.207ZM24.1213 31.0133C24.0005 30.9529 23.8588 30.9091 23.7067 30.8883H23.7005V30.8841H23.6567C23.5484 30.8945 23.39 30.932 23.0817 31.2758C22.365 32.0883 22.115 32.5987 21.5234 33.0758C20.9317 33.5508 20.165 33.805 18.6317 34.1237C18.1463 34.2237 17.8671 34.3341 17.6838 34.4237C17.7442 34.4737 17.738 34.4862 17.8275 34.5341C18.0525 34.6591 18.34 34.7695 18.5734 34.83C19.2317 34.9966 20.315 35.1904 21.4442 34.9966C22.5734 34.8008 23.7484 34.2529 24.7505 32.83C24.9234 32.5841 24.9421 32.2216 24.8005 31.832C24.6588 31.4425 24.3421 31.107 24.1213 31.0133ZM32.5338 3.12996L32.415 3.15288C32.4546 3.14454 32.4984 3.14038 32.538 3.13204C32.5359 3.13204 32.5359 3.12996 32.5338 3.12996ZM38.3296 14.3758C36.9317 14.3945 36.1484 14.7591 35.7359 15.2362C35.1525 15.9133 35.0984 17.1008 35.4609 18.5633C35.8213 20.0279 36.565 21.6654 37.265 23.0258C37.615 23.707 37.9546 24.3195 38.2275 24.8175C38.5025 25.3175 38.7046 25.6716 38.8275 25.9737C38.94 26.2529 39.0671 26.4987 39.1942 26.7279C39.7359 25.5716 39.8317 24.4362 39.7775 23.2529C39.7067 21.7883 39.3692 20.2904 39.4192 18.7737C39.4755 17.0008 39.8213 15.8466 39.8505 14.4758C39.3942 14.4133 38.865 14.3758 38.3296 14.3758ZM38.588 15.43L38.5859 15.4466C38.5859 15.4529 38.5859 15.4591 38.5859 15.4675C38.5859 15.5633 38.5588 15.655 38.5109 15.73L38.513 15.7279C38.4484 15.8466 38.3734 15.9508 38.2859 16.0404C38.0817 16.2675 37.8088 16.4258 37.5005 16.48L37.4921 16.482C37.4484 16.4883 37.3984 16.4904 37.3463 16.4904C37.0838 16.4904 36.8421 16.407 36.6442 16.2654L36.6484 16.2675C36.5463 16.1966 36.4567 16.1154 36.3838 16.0237L36.3817 16.0216C36.3171 15.9508 36.2713 15.8591 36.2525 15.7612V15.757C36.2525 15.7466 36.2505 15.7362 36.2505 15.7258C36.2505 15.6362 36.2838 15.5529 36.34 15.4904C36.4067 15.4133 36.4859 15.3508 36.5775 15.305L36.5817 15.3029C36.7796 15.1904 37.0463 15.107 37.3484 15.0612C37.4609 15.0445 37.5734 15.0362 37.6775 15.0341V15.0404H37.7796C37.915 15.0445 38.04 15.0591 38.1505 15.0862C38.2609 15.1112 38.3567 15.1487 38.4338 15.2008C38.5109 15.2529 38.5692 15.332 38.588 15.43ZM15.4025 23.557C15.4025 23.182 15.4317 22.8154 15.4859 22.455L15.4817 22.4945C15.6942 20.955 15.7234 19.5154 15.6984 18.3779C15.6734 17.2695 15.5942 16.532 15.5942 16.0716C15.5942 16.0654 15.5942 16.0591 15.5942 16.0529C15.5942 16.0466 15.5942 16.0383 15.5942 16.032V16.0216L15.5921 16.0091C15.5921 16.005 15.5921 16.0008 15.5921 15.9966C15.5921 13.53 16.0255 11.1654 16.8109 8.97163C17.388 7.42163 18.2463 5.84871 19.5317 4.57371C18.2671 4.15288 16.0255 3.51121 13.5963 3.39038C13.363 3.37788 13.09 3.36954 12.8171 3.36954L12.815 3.37163C12.5546 3.37163 12.2921 3.37996 12.0338 3.39454C9.95463 3.51538 7.98796 4.12579 6.58379 5.63413C5.17546 7.14246 4.24838 9.61538 4.45046 13.7091C4.49004 14.4841 4.82338 16.655 5.39421 19.2341C5.96713 21.8133 6.77338 24.8487 7.74421 27.53C8.71713 30.2112 9.89629 32.5445 11.0171 33.6487C11.5817 34.2008 12.0713 34.4237 12.515 34.405C12.9609 34.3841 13.4984 34.1237 14.1546 33.3258C15.4442 31.755 16.663 30.3654 17.9213 29.0154L17.8796 29.0591C16.3588 27.7154 15.4025 25.7508 15.4025 23.557Z" fill="#070C1D"/>
<path d="M26.4845 3.26746V3.26329C24.0512 3.26954 22.3074 4.01329 20.9824 5.12787C19.6178 6.27996 18.7033 7.85704 18.1012 9.47162C17.3866 11.3883 17.1428 13.2425 17.0449 14.5008L17.072 14.4841C17.8074 14.0675 18.772 13.6508 19.8053 13.4091C20.8387 13.1675 21.9512 13.0945 22.9595 13.4904C23.9678 13.8862 24.8012 14.8175 25.1033 16.23C26.5512 23.0154 24.6533 25.5383 23.9533 27.4425C23.7303 27.9904 23.4991 28.6945 23.3053 29.4133L23.272 29.5529C23.3595 29.532 23.4491 29.507 23.5366 29.4987C24.0303 29.457 24.4178 29.6237 24.647 29.7237C25.3512 30.0195 25.8345 30.6404 26.0949 31.3487C26.1637 31.5341 26.2116 31.7341 26.2408 31.9404C26.2678 32.0112 26.2824 32.0945 26.2824 32.18C26.2824 32.1883 26.2824 32.1966 26.2824 32.205C26.2491 33.2466 26.2283 34.4695 26.2283 35.6987C26.2283 37.155 26.2574 38.605 26.3116 40.0487C26.3595 41.1445 26.4283 42.1154 26.5137 42.88C26.6033 43.6591 26.7283 44.2487 26.8074 44.4487C27.0699 45.1154 27.4553 45.9883 28.1512 46.582C28.847 47.1737 29.8449 47.5695 31.6678 47.1737C33.2491 46.83 34.2241 46.3529 34.8762 45.6675C35.5283 44.982 35.9158 44.0279 36.1637 42.5675C36.5366 40.38 37.2845 34.0362 37.3762 32.8425C37.3345 31.9425 37.4658 31.2508 37.7512 30.7237C38.0428 30.182 38.497 29.8508 38.8866 29.6716C39.0824 29.582 39.2658 29.5216 39.4158 29.4779C39.2324 29.2133 39.0678 28.9925 38.897 28.7779L38.9158 28.8008C38.3762 28.1425 37.9158 27.3862 37.5678 26.5716L37.5449 26.5112C37.3345 26.0758 37.1574 25.7466 36.972 25.4237L37.0158 25.505C36.7428 25.005 36.397 24.38 36.0345 23.6779C35.3095 22.2716 34.522 20.5675 34.1116 18.907C33.7033 17.2487 33.6449 15.532 34.6908 14.3216C35.6158 13.2466 37.2428 12.8008 39.6824 13.0508C39.6116 12.832 39.5678 12.6508 39.4449 12.3591C38.8512 10.9633 38.1366 9.75912 37.2887 8.66746C35.2199 5.99662 31.8762 3.35287 26.7137 3.26746H26.4845ZM24.872 34.7216C24.872 34.7466 24.872 34.7695 24.872 34.7945V34.7216Z" fill="#070C1D"/>
<path d="M17.0156 16.1883L17.0198 16.1862L17.026 16.18L17.0156 16.1883Z" fill="#070C1D"/>
<path d="M30.3066 0.87787C30.3421 0.867453 30.3796 0.863286 30.4129 0.854953L30.4546 0.842453L30.3066 0.87787Z" fill="#070C1D"/>
<path d="M20.0781 14.7779L20.099 14.7758L20.1156 14.7695L20.0781 14.7779Z" fill="#070C1D"/>
<path d="M22.6588 26.9529C23.4942 24.6737 25.1379 23.0112 23.7546 16.5237C23.5275 15.4612 23.0796 15.032 22.4629 14.7904C22.1629 14.68 21.815 14.6154 21.4504 14.6154C21.4275 14.6154 21.4025 14.6154 21.3796 14.6154H21.3838C20.94 14.6195 20.5108 14.6758 20.0983 14.7758C19.2233 14.9966 18.4525 15.3091 17.7358 15.7091C17.4671 15.857 17.2358 16.0112 17.0192 16.1841L16.9796 16.2216C16.9921 16.5258 17.0504 17.2633 17.0754 18.3487C17.1004 19.5362 17.0713 21.0508 16.8442 22.6904C16.3525 26.2529 18.9067 29.2029 21.9067 29.207C22.0838 28.4758 22.3713 27.7341 22.6588 26.9529ZM20.8858 16.6008C20.7879 16.5008 20.7088 16.3883 20.6442 16.2654L20.64 16.257C20.5858 16.1695 20.5546 16.0633 20.5546 15.9487C20.5546 15.9279 20.5567 15.907 20.5588 15.8862C20.59 15.6612 20.7733 15.5466 20.9504 15.482C21.115 15.4279 21.2983 15.3966 21.4942 15.3966C21.5233 15.3966 21.5525 15.3966 21.5858 15.3987L21.5838 15.3904C21.6921 15.3904 21.8088 15.4008 21.9254 15.4175C22.24 15.4612 22.5213 15.5466 22.7338 15.6716C22.84 15.73 22.9317 15.8029 23.0046 15.8904L23.0067 15.8925C23.0775 15.9737 23.1192 16.08 23.1192 16.1987C23.1192 16.2154 23.1192 16.232 23.1171 16.2487C23.0963 16.3737 23.04 16.48 22.9629 16.5675C22.8775 16.6716 22.7817 16.7612 22.6733 16.8362L22.6692 16.8383C22.4588 16.9925 22.1942 17.0841 21.9088 17.0841C21.8525 17.0841 21.7963 17.08 21.7421 17.0737H21.7483C21.4025 17.0154 21.1067 16.8445 20.8858 16.6008Z" fill="#070C1D"/>
<path d="M17.6943 15.73C17.7089 15.7216 17.7235 15.7175 17.736 15.7091C17.7381 15.7091 17.7402 15.707 17.7423 15.705L17.6943 15.73ZM38.3985 7.81746C39.3006 8.97371 40.0818 10.2904 40.6839 11.7029L40.7277 11.8175C40.9548 12.3675 41.1068 12.832 41.1923 13.1925C41.236 13.3737 41.2652 13.5258 41.2756 13.6841C41.2798 13.7633 41.2839 13.8445 41.2506 13.9841C41.2506 13.9904 41.2402 14.005 41.2381 14.0112C41.3006 15.8362 40.8527 17.0737 40.8006 18.8154C40.7589 20.0779 41.0777 21.5612 41.1568 23.18C41.2318 24.7008 41.0506 26.3716 40.0735 28.0112C40.1568 28.1112 40.2298 28.2112 40.3089 28.3112C42.8902 24.1966 44.7506 19.6445 45.7423 15.7633C46.2735 13.6737 46.5548 11.78 46.5798 10.28C46.6006 8.77996 46.3235 7.69246 45.9735 7.23829C43.211 3.66329 39.4756 2.75287 36.3423 2.72787L36.0423 2.72996C34.8339 2.74871 33.6673 2.88829 32.5402 3.13204C35.0985 4.28204 37.036 6.05287 38.3985 7.81746Z" fill="#070C1D"/>
<path d="M26.8276 0.538293H26.8068C24.3818 0.496627 22.3005 1.09246 20.6193 2.08413C18.9651 1.50288 15.5338 0.500793 11.9151 0.700793C9.39634 0.840377 6.64634 1.61538 4.60884 3.79246C2.57759 5.96954 1.50467 9.33829 1.72967 13.9216C1.79217 15.1862 2.14842 17.2487 2.73801 19.9195C3.32967 22.5904 4.15884 25.7175 5.19426 28.5695C6.22967 31.4237 7.36301 33.9862 9.13592 35.7279C10.0213 36.6008 11.2401 37.3341 12.6755 37.2737C13.6838 37.232 14.5943 36.7841 15.3818 36.1237C15.7651 36.6341 16.1734 36.857 16.5463 37.0633C17.0151 37.3237 17.4713 37.5008 17.9443 37.6175C18.7943 37.832 20.2484 38.1195 21.9526 37.8258C22.5338 37.7279 23.1443 37.5362 23.7526 37.2633C23.7755 37.9508 23.8026 38.6237 23.8276 39.305C23.913 41.4633 23.9651 43.457 24.6047 45.205C24.7068 45.4904 24.9901 46.9612 26.1005 48.2591C27.2109 49.5591 29.3901 50.3695 31.8693 49.832C33.6193 49.4529 35.8422 48.7695 37.3213 46.6404C38.7818 44.5362 39.4401 41.5175 39.5713 36.6216C39.6047 36.357 39.6443 36.132 39.6838 35.9216L40.0318 35.9529H40.0734C41.9401 36.0383 43.9651 35.7695 45.6568 34.9737C47.1547 34.2716 48.288 33.5612 49.1151 32.3008C49.3213 31.9883 49.5463 31.6112 49.6088 30.9612C49.6713 30.3112 49.3026 29.2945 48.6901 28.8258C47.4651 27.8841 46.6963 28.2425 45.8713 28.4154C45.1359 28.5883 44.2859 28.6966 43.4151 28.7195H43.3984C45.7776 24.6633 47.4838 20.355 48.4568 16.5425C49.0338 14.2925 49.3568 12.2175 49.3818 10.4029C49.4088 8.58829 49.263 6.98204 48.188 5.59246C44.8318 1.25079 40.113 0.0507935 36.4609 0.00912679C36.3484 0.00704346 36.2338 0.00496012 36.1213 0.00704346V0.000793457C34.1338 0.0174601 32.2213 0.31746 30.4109 0.852877L30.3255 0.882043C29.2797 0.68621 28.0651 0.56121 26.8276 0.538293ZM31.763 1.86538C33.038 1.55079 34.5047 1.36121 36.013 1.34246H36.0255L36.0276 1.33413C39.4818 1.30079 43.8922 2.28204 47.0609 6.37996C47.7734 7.30079 47.9859 8.64663 47.9609 10.305C47.9338 11.9612 47.6318 13.9445 47.0776 16.1175C46.0026 20.3258 43.9734 25.232 41.1151 29.6341C41.2088 29.7029 41.3172 29.7633 41.4297 29.8091L41.4401 29.8133C42.0359 30.0633 43.3963 30.2779 46.1109 29.7133C46.7943 29.5675 47.2943 29.4695 47.813 29.8695C48.0463 30.0695 48.1922 30.3654 48.1922 30.6966C48.1922 30.7175 48.1922 30.7383 48.1901 30.7591V30.757C48.1588 31.0216 48.0651 31.2591 47.9213 31.457C47.3963 32.255 46.3609 33.0112 45.0359 33.6341C43.8609 34.1883 42.1755 34.4779 40.6818 34.4945C39.9318 34.5029 39.2422 34.4445 38.6547 34.2591L38.6172 34.2445C38.3901 36.4529 37.8693 40.8133 37.5297 42.8029C37.2588 44.407 36.7838 45.682 35.8755 46.6362C34.9693 47.5904 33.688 48.1654 31.963 48.5404C29.8276 49.005 28.2693 48.505 27.2651 47.6487C26.263 46.7945 25.8047 45.6612 25.5276 44.9675C25.338 44.4883 25.2401 43.8675 25.1443 43.0383C25.0484 42.2091 24.9797 41.1945 24.9318 40.0508C24.8859 38.8883 24.8609 37.5216 24.8609 36.1487C24.8609 35.6966 24.8651 35.2466 24.8693 34.7945C24.0088 35.5945 22.9213 36.157 21.713 36.3716L21.6755 36.3779C20.2568 36.6216 18.9922 36.382 18.2359 36.1904C17.8338 36.0883 17.4838 35.9445 17.1547 35.7654C16.8088 35.5779 16.4797 35.3633 16.2588 34.9445C16.1713 34.7841 16.1193 34.5904 16.1193 34.3862C16.1193 34.305 16.1276 34.2237 16.1443 34.1487C16.2193 33.8695 16.3755 33.632 16.5901 33.4654L16.5922 33.4633C17.0005 33.1279 17.538 32.9404 18.3526 32.7695C19.8318 32.4612 20.3484 32.2508 20.663 31.9987C20.9297 31.782 21.2338 31.3445 21.7672 30.7029C21.7651 30.6841 21.763 30.6529 21.7609 30.6237V30.6175C20.7526 30.5883 19.813 30.3154 18.9922 29.855L19.0234 29.8716C18.7151 30.2008 17.138 31.8883 15.2172 34.23C14.4088 35.2091 13.5151 35.7716 12.5734 35.8112C11.6318 35.8508 10.7797 35.3716 10.0547 34.6612C8.60676 33.2383 7.45259 30.7904 6.44634 28.0237C5.44217 25.257 4.62551 22.1758 4.04426 19.5508C3.46092 16.9258 3.11926 14.8091 3.06926 13.7883C2.85259 9.45079 3.85467 6.52788 5.57342 4.68413C7.29426 2.84038 9.65259 2.14246 11.9505 2.00913C16.0776 1.76954 19.9943 3.22579 20.788 3.53829C22.3172 2.48829 24.2859 1.83413 26.7422 1.87579C27.9797 1.89454 29.1693 2.05913 30.3068 2.35288L30.2026 2.32996L30.2443 2.31121C30.6422 2.16121 31.1505 2.00913 31.6713 1.88413L31.763 1.86538Z" fill="#070C1D"/>
</g>
<defs>
<clipPath id="clip0_1074_445">
<rect width="50" height="50" fill="white" transform="translate(0.65918 0.000793457)"/>
</clipPath>
</defs>
</svg>
